M48
; DRILL file {KiCad 9.0.4} date 2025-08-23T22:47:15-0400
; FORMAT={-:-/ absolute / inch / decimal}
; #@! TF.CreationDate,2025-08-23T22:47:15-04:00
; #@! TF.GenerationSoftware,Kicad,Pcbnew,9.0.4
; #@! TF.FileFunction,Plated,1,2,PTH
FMAT,2
INCH
; #@! TA.AperFunction,Plated,PTH,ViaDrill
T1C0.0118
; #@! TA.AperFunction,Plated,PTH,ComponentDrill
T2C0.0157
; #@! TA.AperFunction,Plated,PTH,ComponentDrill
T3C0.0197
%
G90
G05
T1
X4.4055Y-4.1437
X4.4292Y-4.1201
X4.5925Y-4.3228
X4.6496Y-4.3898
X4.6732Y-4.3661
X4.6736Y-3.9807
X4.6973Y-4.0044
X4.7303Y-4.0354
X4.754Y-4.0591
X4.782Y-4.095
X4.7874Y-4.2205
X4.8057Y-4.1187
X4.8386Y-3.7421
X4.8895Y-3.8344
X4.9626Y-3.7913
X5.032Y-3.8211
X5.0728Y-3.8169
X5.1043Y-3.439
X5.1516Y-3.7421
X5.2461Y-4.1634
X5.3169Y-4.0787
X5.4154Y-4.0
X5.5197Y-4.124
T2
X4.5268Y-4.1289
X4.5352Y-4.0983
X4.5491Y-4.1512
X4.5714Y-4.1735
X4.5797Y-4.1428
X4.602Y-4.1651
X4.6159Y-4.218
X4.6243Y-4.1874
X4.6382Y-4.2403
X4.6465Y-4.2097
X4.6605Y-4.2625
X4.6911Y-4.2542
X4.8917Y-3.6382
X4.9075Y-3.6106
X4.939Y-3.6106
X4.9547Y-3.6382
X4.9705Y-3.6106
X4.9862Y-3.6382
X5.0177Y-3.6382
X5.0335Y-3.6106
X5.0492Y-3.6382
X5.065Y-3.6106
X5.0965Y-3.6106
X5.1122Y-3.6382
X5.3129Y-4.2542
X5.3435Y-4.2625
X5.3574Y-4.2097
X5.3658Y-4.2403
X5.3797Y-4.1874
X5.388Y-4.218
X5.4019Y-4.1651
X5.4242Y-4.1428
X5.4326Y-4.1735
X5.4548Y-4.1512
X5.4688Y-4.0983
X5.4771Y-4.1289
T3
G00X4.2974Y-4.2419
M15
G01X4.3141Y-4.2252
M16
G05
G00X4.4731Y-4.0863
M15
G01X4.4898Y-4.0696
M16
G05
G00X4.5474Y-4.4919
M15
G01X4.5641Y-4.4752
M16
G05
G00X4.703Y-4.3163
M15
G01X4.7197Y-4.2996
M16
G05
G00X4.8252Y-3.3921
M15
G01X4.8252Y-3.3685
M16
G05
G00X4.8394Y-3.6264
M15
G01X4.8394Y-3.6028
M16
G05
G00X5.1646Y-3.6264
M15
G01X5.1646Y-3.6028
M16
G05
G00X5.1787Y-3.3921
M15
G01X5.1787Y-3.3685
M16
G05
G00X5.3009Y-4.3163
M15
G01X5.2842Y-4.2996
M16
G05
G00X5.4565Y-4.4919
M15
G01X5.4398Y-4.4752
M16
G05
G00X5.5308Y-4.0863
M15
G01X5.5141Y-4.0696
M16
G05
G00X5.7065Y-4.2419
M15
G01X5.6898Y-4.2252
M16
G05
M30
