%TF.GenerationSoftware,KiCad,Pcbnew,9.0.4*%
%TF.CreationDate,2025-08-23T22:47:15-04:00*%
%TF.ProjectId,usbc-data-splitter,75736263-2d64-4617-9461-2d73706c6974,rev?*%
%TF.SameCoordinates,Original*%
%TF.FileFunction,Legend,Top*%
%TF.FilePolarity,Positive*%
%FSLAX46Y46*%
G04 Gerber Fmt 4.6, Leading zero omitted, Abs format (unit mm)*
G04 Created by KiCad (PCBNEW 9.0.4) date 2025-08-23 22:47:15*
%MOMM*%
%LPD*%
G01*
G04 APERTURE LIST*
G04 Aperture macros list*
%AMHorizOval*
0 Thick line with rounded ends*
0 $1 width*
0 $2 $3 position (X,Y) of the first rounded end (center of the circle)*
0 $4 $5 position (X,Y) of the second rounded end (center of the circle)*
0 Add line between two ends*
20,1,$1,$2,$3,$4,$5,0*
0 Add two circle primitives to create the rounded ends*
1,1,$1,$2,$3*
1,1,$1,$4,$5*%
G04 Aperture macros list end*
%ADD10C,0.100000*%
%ADD11C,0.150000*%
%ADD12C,0.120000*%
%ADD13C,0.650000*%
%ADD14O,0.950000X0.650000*%
%ADD15R,0.300000X0.700000*%
%ADD16O,0.800000X1.400000*%
%ADD17HorizOval,0.650000X-0.106066X0.106066X0.106066X-0.106066X0*%
%ADD18HorizOval,0.800000X0.212132X0.212132X-0.212132X-0.212132X0*%
%ADD19HorizOval,0.650000X-0.106066X-0.106066X0.106066X0.106066X0*%
%ADD20HorizOval,0.800000X-0.212132X0.212132X0.212132X-0.212132X0*%
G04 APERTURE END LIST*
D10*
X122439598Y-115122419D02*
X122439598Y-115836704D01*
X122439598Y-115836704D02*
X122391979Y-115979561D01*
X122391979Y-115979561D02*
X122296741Y-116074800D01*
X122296741Y-116074800D02*
X122153884Y-116122419D01*
X122153884Y-116122419D02*
X122058646Y-116122419D01*
X123391979Y-116122419D02*
X122915789Y-116122419D01*
X122915789Y-116122419D02*
X122915789Y-115122419D01*
X124296741Y-116027180D02*
X124249122Y-116074800D01*
X124249122Y-116074800D02*
X124106265Y-116122419D01*
X124106265Y-116122419D02*
X124011027Y-116122419D01*
X124011027Y-116122419D02*
X123868170Y-116074800D01*
X123868170Y-116074800D02*
X123772932Y-115979561D01*
X123772932Y-115979561D02*
X123725313Y-115884323D01*
X123725313Y-115884323D02*
X123677694Y-115693847D01*
X123677694Y-115693847D02*
X123677694Y-115550990D01*
X123677694Y-115550990D02*
X123725313Y-115360514D01*
X123725313Y-115360514D02*
X123772932Y-115265276D01*
X123772932Y-115265276D02*
X123868170Y-115170038D01*
X123868170Y-115170038D02*
X124011027Y-115122419D01*
X124011027Y-115122419D02*
X124106265Y-115122419D01*
X124106265Y-115122419D02*
X124249122Y-115170038D01*
X124249122Y-115170038D02*
X124296741Y-115217657D01*
X125011027Y-115122419D02*
X125011027Y-115836704D01*
X125011027Y-115836704D02*
X124963408Y-115979561D01*
X124963408Y-115979561D02*
X124868170Y-116074800D01*
X124868170Y-116074800D02*
X124725313Y-116122419D01*
X124725313Y-116122419D02*
X124630075Y-116122419D01*
X125963408Y-116122419D02*
X125487218Y-116122419D01*
X125487218Y-116122419D02*
X125487218Y-115122419D01*
X126868170Y-116027180D02*
X126820551Y-116074800D01*
X126820551Y-116074800D02*
X126677694Y-116122419D01*
X126677694Y-116122419D02*
X126582456Y-116122419D01*
X126582456Y-116122419D02*
X126439599Y-116074800D01*
X126439599Y-116074800D02*
X126344361Y-115979561D01*
X126344361Y-115979561D02*
X126296742Y-115884323D01*
X126296742Y-115884323D02*
X126249123Y-115693847D01*
X126249123Y-115693847D02*
X126249123Y-115550990D01*
X126249123Y-115550990D02*
X126296742Y-115360514D01*
X126296742Y-115360514D02*
X126344361Y-115265276D01*
X126344361Y-115265276D02*
X126439599Y-115170038D01*
X126439599Y-115170038D02*
X126582456Y-115122419D01*
X126582456Y-115122419D02*
X126677694Y-115122419D01*
X126677694Y-115122419D02*
X126820551Y-115170038D01*
X126820551Y-115170038D02*
X126868170Y-115217657D01*
X127582456Y-115122419D02*
X127582456Y-115836704D01*
X127582456Y-115836704D02*
X127534837Y-115979561D01*
X127534837Y-115979561D02*
X127439599Y-116074800D01*
X127439599Y-116074800D02*
X127296742Y-116122419D01*
X127296742Y-116122419D02*
X127201504Y-116122419D01*
X128534837Y-116122419D02*
X128058647Y-116122419D01*
X128058647Y-116122419D02*
X128058647Y-115122419D01*
X129439599Y-116027180D02*
X129391980Y-116074800D01*
X129391980Y-116074800D02*
X129249123Y-116122419D01*
X129249123Y-116122419D02*
X129153885Y-116122419D01*
X129153885Y-116122419D02*
X129011028Y-116074800D01*
X129011028Y-116074800D02*
X128915790Y-115979561D01*
X128915790Y-115979561D02*
X128868171Y-115884323D01*
X128868171Y-115884323D02*
X128820552Y-115693847D01*
X128820552Y-115693847D02*
X128820552Y-115550990D01*
X128820552Y-115550990D02*
X128868171Y-115360514D01*
X128868171Y-115360514D02*
X128915790Y-115265276D01*
X128915790Y-115265276D02*
X129011028Y-115170038D01*
X129011028Y-115170038D02*
X129153885Y-115122419D01*
X129153885Y-115122419D02*
X129249123Y-115122419D01*
X129249123Y-115122419D02*
X129391980Y-115170038D01*
X129391980Y-115170038D02*
X129439599Y-115217657D01*
X130153885Y-115122419D02*
X130153885Y-115836704D01*
X130153885Y-115836704D02*
X130106266Y-115979561D01*
X130106266Y-115979561D02*
X130011028Y-116074800D01*
X130011028Y-116074800D02*
X129868171Y-116122419D01*
X129868171Y-116122419D02*
X129772933Y-116122419D01*
X131106266Y-116122419D02*
X130630076Y-116122419D01*
X130630076Y-116122419D02*
X130630076Y-115122419D01*
X132011028Y-116027180D02*
X131963409Y-116074800D01*
X131963409Y-116074800D02*
X131820552Y-116122419D01*
X131820552Y-116122419D02*
X131725314Y-116122419D01*
X131725314Y-116122419D02*
X131582457Y-116074800D01*
X131582457Y-116074800D02*
X131487219Y-115979561D01*
X131487219Y-115979561D02*
X131439600Y-115884323D01*
X131439600Y-115884323D02*
X131391981Y-115693847D01*
X131391981Y-115693847D02*
X131391981Y-115550990D01*
X131391981Y-115550990D02*
X131439600Y-115360514D01*
X131439600Y-115360514D02*
X131487219Y-115265276D01*
X131487219Y-115265276D02*
X131582457Y-115170038D01*
X131582457Y-115170038D02*
X131725314Y-115122419D01*
X131725314Y-115122419D02*
X131820552Y-115122419D01*
X131820552Y-115122419D02*
X131963409Y-115170038D01*
X131963409Y-115170038D02*
X132011028Y-115217657D01*
D11*
X126311905Y-95514819D02*
X126311905Y-94514819D01*
X126311905Y-94514819D02*
X126692857Y-94514819D01*
X126692857Y-94514819D02*
X126788095Y-94562438D01*
X126788095Y-94562438D02*
X126835714Y-94610057D01*
X126835714Y-94610057D02*
X126883333Y-94705295D01*
X126883333Y-94705295D02*
X126883333Y-94848152D01*
X126883333Y-94848152D02*
X126835714Y-94943390D01*
X126835714Y-94943390D02*
X126788095Y-94991009D01*
X126788095Y-94991009D02*
X126692857Y-95038628D01*
X126692857Y-95038628D02*
X126311905Y-95038628D01*
X127835714Y-95514819D02*
X127264286Y-95514819D01*
X127550000Y-95514819D02*
X127550000Y-94514819D01*
X127550000Y-94514819D02*
X127454762Y-94657676D01*
X127454762Y-94657676D02*
X127359524Y-94752914D01*
X127359524Y-94752914D02*
X127264286Y-94800533D01*
D12*
%TO.C,P1*%
X122300000Y-94070000D02*
X122300000Y-86810000D01*
X123800000Y-94069999D02*
X122300000Y-94070000D01*
X131800000Y-94070000D02*
X130300000Y-94069999D01*
X131800000Y-94070000D02*
X131800000Y-86810000D01*
%TD*%
%LPC*%
D13*
%TO.C,P1*%
X130650000Y-93060000D03*
D14*
X123450000Y-93060000D03*
D15*
X129800000Y-93720000D03*
X129300000Y-93720000D03*
X128800000Y-93720000D03*
X128300000Y-93720001D03*
X127800000Y-93720000D03*
X127300000Y-93720000D03*
X126800000Y-93720000D03*
X126300000Y-93720000D03*
X125800000Y-93720001D03*
X125300000Y-93720000D03*
X124800000Y-93720000D03*
X124300000Y-93720000D03*
D13*
X124250000Y-92410000D03*
X124650000Y-91710000D03*
X125450000Y-91710000D03*
X125850000Y-92410000D03*
X126250000Y-91710000D03*
X126650000Y-92410000D03*
X127450000Y-92410000D03*
X127850000Y-91710000D03*
X128250000Y-92410000D03*
X128650000Y-91710000D03*
X129450000Y-91710000D03*
X129850000Y-92410000D03*
D16*
X131540000Y-85860000D03*
X131180000Y-91810000D03*
X122920000Y-91810000D03*
X122560000Y-85860000D03*
%TD*%
D13*
%TO.C,J1*%
X120178570Y-108162599D03*
D17*
X115087401Y-103071430D03*
D13*
X115193467Y-104096735D03*
X114981335Y-104874552D03*
X115547021Y-105440238D03*
X116324838Y-105228106D03*
X116112706Y-106005923D03*
X116890523Y-105793791D03*
X117456209Y-106359477D03*
X117244077Y-107137294D03*
X118021894Y-106925162D03*
X117809762Y-107702979D03*
X118375448Y-108268665D03*
X119153265Y-108056533D03*
D18*
X115716726Y-113883093D03*
X119669453Y-109421249D03*
X113828751Y-103580547D03*
X109366907Y-107533274D03*
%TD*%
D13*
%TO.C,J2*%
X139012599Y-103071430D03*
D19*
X133921430Y-108162599D03*
D13*
X134946735Y-108056533D03*
X135724552Y-108268665D03*
X136290238Y-107702979D03*
X136078106Y-106925162D03*
X136855923Y-107137294D03*
X136643791Y-106359477D03*
X137209477Y-105793791D03*
X137987294Y-106005923D03*
X137775162Y-105228106D03*
X138552979Y-105440238D03*
X139118665Y-104874552D03*
X138906533Y-104096735D03*
D20*
X144733093Y-107533274D03*
X140271249Y-103580547D03*
X134430547Y-109421249D03*
X138383274Y-113883093D03*
%TD*%
%LPD*%
M02*
