%TF.GenerationSoftware,KiCad,Pcbnew,9.0.4*%
%TF.CreationDate,2025-08-24T11:28:45-04:00*%
%TF.ProjectId,usbc-data-splitter,75736263-2d64-4617-9461-2d73706c6974,rev?*%
%TF.SameCoordinates,Original*%
%TF.FileFunction,Legend,Top*%
%TF.FilePolarity,Positive*%
%FSLAX46Y46*%
G04 Gerber Fmt 4.6, Leading zero omitted, Abs format (unit mm)*
G04 Created by KiCad (PCBNEW 9.0.4) date 2025-08-24 11:28:45*
%MOMM*%
%LPD*%
G01*
G04 APERTURE LIST*
G04 Aperture macros list*
%AMHorizOval*
0 Thick line with rounded ends*
0 $1 width*
0 $2 $3 position (X,Y) of the first rounded end (center of the circle)*
0 $4 $5 position (X,Y) of the second rounded end (center of the circle)*
0 Add line between two ends*
20,1,$1,$2,$3,$4,$5,0*
0 Add two circle primitives to create the rounded ends*
1,1,$1,$2,$3*
1,1,$1,$4,$5*%
G04 Aperture macros list end*
%ADD10C,0.100000*%
%ADD11C,0.120000*%
%ADD12C,0.650000*%
%ADD13O,0.950000X0.650000*%
%ADD14R,0.300000X0.700000*%
%ADD15O,0.800000X1.400000*%
%ADD16HorizOval,0.650000X-0.106066X0.106066X0.106066X-0.106066X0*%
%ADD17HorizOval,0.800000X0.212132X0.212132X-0.212132X-0.212132X0*%
%ADD18HorizOval,0.650000X-0.106066X-0.106066X0.106066X0.106066X0*%
%ADD19HorizOval,0.800000X-0.212132X0.212132X0.212132X-0.212132X0*%
G04 APERTURE END LIST*
D10*
X125325312Y-95552180D02*
X125277693Y-95599800D01*
X125277693Y-95599800D02*
X125134836Y-95647419D01*
X125134836Y-95647419D02*
X125039598Y-95647419D01*
X125039598Y-95647419D02*
X124896741Y-95599800D01*
X124896741Y-95599800D02*
X124801503Y-95504561D01*
X124801503Y-95504561D02*
X124753884Y-95409323D01*
X124753884Y-95409323D02*
X124706265Y-95218847D01*
X124706265Y-95218847D02*
X124706265Y-95075990D01*
X124706265Y-95075990D02*
X124753884Y-94885514D01*
X124753884Y-94885514D02*
X124801503Y-94790276D01*
X124801503Y-94790276D02*
X124896741Y-94695038D01*
X124896741Y-94695038D02*
X125039598Y-94647419D01*
X125039598Y-94647419D02*
X125134836Y-94647419D01*
X125134836Y-94647419D02*
X125277693Y-94695038D01*
X125277693Y-94695038D02*
X125325312Y-94742657D01*
X125896741Y-95647419D02*
X125801503Y-95599800D01*
X125801503Y-95599800D02*
X125753884Y-95552180D01*
X125753884Y-95552180D02*
X125706265Y-95456942D01*
X125706265Y-95456942D02*
X125706265Y-95171228D01*
X125706265Y-95171228D02*
X125753884Y-95075990D01*
X125753884Y-95075990D02*
X125801503Y-95028371D01*
X125801503Y-95028371D02*
X125896741Y-94980752D01*
X125896741Y-94980752D02*
X126039598Y-94980752D01*
X126039598Y-94980752D02*
X126134836Y-95028371D01*
X126134836Y-95028371D02*
X126182455Y-95075990D01*
X126182455Y-95075990D02*
X126230074Y-95171228D01*
X126230074Y-95171228D02*
X126230074Y-95456942D01*
X126230074Y-95456942D02*
X126182455Y-95552180D01*
X126182455Y-95552180D02*
X126134836Y-95599800D01*
X126134836Y-95599800D02*
X126039598Y-95647419D01*
X126039598Y-95647419D02*
X125896741Y-95647419D01*
X126658646Y-95647419D02*
X126658646Y-94980752D01*
X126658646Y-95075990D02*
X126706265Y-95028371D01*
X126706265Y-95028371D02*
X126801503Y-94980752D01*
X126801503Y-94980752D02*
X126944360Y-94980752D01*
X126944360Y-94980752D02*
X127039598Y-95028371D01*
X127039598Y-95028371D02*
X127087217Y-95123609D01*
X127087217Y-95123609D02*
X127087217Y-95647419D01*
X127087217Y-95123609D02*
X127134836Y-95028371D01*
X127134836Y-95028371D02*
X127230074Y-94980752D01*
X127230074Y-94980752D02*
X127372931Y-94980752D01*
X127372931Y-94980752D02*
X127468170Y-95028371D01*
X127468170Y-95028371D02*
X127515789Y-95123609D01*
X127515789Y-95123609D02*
X127515789Y-95647419D01*
X127991979Y-95647419D02*
X127991979Y-94647419D01*
X127991979Y-95028371D02*
X128087217Y-94980752D01*
X128087217Y-94980752D02*
X128277693Y-94980752D01*
X128277693Y-94980752D02*
X128372931Y-95028371D01*
X128372931Y-95028371D02*
X128420550Y-95075990D01*
X128420550Y-95075990D02*
X128468169Y-95171228D01*
X128468169Y-95171228D02*
X128468169Y-95456942D01*
X128468169Y-95456942D02*
X128420550Y-95552180D01*
X128420550Y-95552180D02*
X128372931Y-95599800D01*
X128372931Y-95599800D02*
X128277693Y-95647419D01*
X128277693Y-95647419D02*
X128087217Y-95647419D01*
X128087217Y-95647419D02*
X127991979Y-95599800D01*
X129039598Y-95647419D02*
X128944360Y-95599800D01*
X128944360Y-95599800D02*
X128896741Y-95552180D01*
X128896741Y-95552180D02*
X128849122Y-95456942D01*
X128849122Y-95456942D02*
X128849122Y-95171228D01*
X128849122Y-95171228D02*
X128896741Y-95075990D01*
X128896741Y-95075990D02*
X128944360Y-95028371D01*
X128944360Y-95028371D02*
X129039598Y-94980752D01*
X129039598Y-94980752D02*
X129182455Y-94980752D01*
X129182455Y-94980752D02*
X129277693Y-95028371D01*
X129277693Y-95028371D02*
X129325312Y-95075990D01*
X129325312Y-95075990D02*
X129372931Y-95171228D01*
X129372931Y-95171228D02*
X129372931Y-95456942D01*
X129372931Y-95456942D02*
X129325312Y-95552180D01*
X129325312Y-95552180D02*
X129277693Y-95599800D01*
X129277693Y-95599800D02*
X129182455Y-95647419D01*
X129182455Y-95647419D02*
X129039598Y-95647419D01*
X122439598Y-115122419D02*
X122439598Y-115836704D01*
X122439598Y-115836704D02*
X122391979Y-115979561D01*
X122391979Y-115979561D02*
X122296741Y-116074800D01*
X122296741Y-116074800D02*
X122153884Y-116122419D01*
X122153884Y-116122419D02*
X122058646Y-116122419D01*
X123391979Y-116122419D02*
X122915789Y-116122419D01*
X122915789Y-116122419D02*
X122915789Y-115122419D01*
X124296741Y-116027180D02*
X124249122Y-116074800D01*
X124249122Y-116074800D02*
X124106265Y-116122419D01*
X124106265Y-116122419D02*
X124011027Y-116122419D01*
X124011027Y-116122419D02*
X123868170Y-116074800D01*
X123868170Y-116074800D02*
X123772932Y-115979561D01*
X123772932Y-115979561D02*
X123725313Y-115884323D01*
X123725313Y-115884323D02*
X123677694Y-115693847D01*
X123677694Y-115693847D02*
X123677694Y-115550990D01*
X123677694Y-115550990D02*
X123725313Y-115360514D01*
X123725313Y-115360514D02*
X123772932Y-115265276D01*
X123772932Y-115265276D02*
X123868170Y-115170038D01*
X123868170Y-115170038D02*
X124011027Y-115122419D01*
X124011027Y-115122419D02*
X124106265Y-115122419D01*
X124106265Y-115122419D02*
X124249122Y-115170038D01*
X124249122Y-115170038D02*
X124296741Y-115217657D01*
X125011027Y-115122419D02*
X125011027Y-115836704D01*
X125011027Y-115836704D02*
X124963408Y-115979561D01*
X124963408Y-115979561D02*
X124868170Y-116074800D01*
X124868170Y-116074800D02*
X124725313Y-116122419D01*
X124725313Y-116122419D02*
X124630075Y-116122419D01*
X125963408Y-116122419D02*
X125487218Y-116122419D01*
X125487218Y-116122419D02*
X125487218Y-115122419D01*
X126868170Y-116027180D02*
X126820551Y-116074800D01*
X126820551Y-116074800D02*
X126677694Y-116122419D01*
X126677694Y-116122419D02*
X126582456Y-116122419D01*
X126582456Y-116122419D02*
X126439599Y-116074800D01*
X126439599Y-116074800D02*
X126344361Y-115979561D01*
X126344361Y-115979561D02*
X126296742Y-115884323D01*
X126296742Y-115884323D02*
X126249123Y-115693847D01*
X126249123Y-115693847D02*
X126249123Y-115550990D01*
X126249123Y-115550990D02*
X126296742Y-115360514D01*
X126296742Y-115360514D02*
X126344361Y-115265276D01*
X126344361Y-115265276D02*
X126439599Y-115170038D01*
X126439599Y-115170038D02*
X126582456Y-115122419D01*
X126582456Y-115122419D02*
X126677694Y-115122419D01*
X126677694Y-115122419D02*
X126820551Y-115170038D01*
X126820551Y-115170038D02*
X126868170Y-115217657D01*
X127582456Y-115122419D02*
X127582456Y-115836704D01*
X127582456Y-115836704D02*
X127534837Y-115979561D01*
X127534837Y-115979561D02*
X127439599Y-116074800D01*
X127439599Y-116074800D02*
X127296742Y-116122419D01*
X127296742Y-116122419D02*
X127201504Y-116122419D01*
X128534837Y-116122419D02*
X128058647Y-116122419D01*
X128058647Y-116122419D02*
X128058647Y-115122419D01*
X129439599Y-116027180D02*
X129391980Y-116074800D01*
X129391980Y-116074800D02*
X129249123Y-116122419D01*
X129249123Y-116122419D02*
X129153885Y-116122419D01*
X129153885Y-116122419D02*
X129011028Y-116074800D01*
X129011028Y-116074800D02*
X128915790Y-115979561D01*
X128915790Y-115979561D02*
X128868171Y-115884323D01*
X128868171Y-115884323D02*
X128820552Y-115693847D01*
X128820552Y-115693847D02*
X128820552Y-115550990D01*
X128820552Y-115550990D02*
X128868171Y-115360514D01*
X128868171Y-115360514D02*
X128915790Y-115265276D01*
X128915790Y-115265276D02*
X129011028Y-115170038D01*
X129011028Y-115170038D02*
X129153885Y-115122419D01*
X129153885Y-115122419D02*
X129249123Y-115122419D01*
X129249123Y-115122419D02*
X129391980Y-115170038D01*
X129391980Y-115170038D02*
X129439599Y-115217657D01*
X130153885Y-115122419D02*
X130153885Y-115836704D01*
X130153885Y-115836704D02*
X130106266Y-115979561D01*
X130106266Y-115979561D02*
X130011028Y-116074800D01*
X130011028Y-116074800D02*
X129868171Y-116122419D01*
X129868171Y-116122419D02*
X129772933Y-116122419D01*
X131106266Y-116122419D02*
X130630076Y-116122419D01*
X130630076Y-116122419D02*
X130630076Y-115122419D01*
X132011028Y-116027180D02*
X131963409Y-116074800D01*
X131963409Y-116074800D02*
X131820552Y-116122419D01*
X131820552Y-116122419D02*
X131725314Y-116122419D01*
X131725314Y-116122419D02*
X131582457Y-116074800D01*
X131582457Y-116074800D02*
X131487219Y-115979561D01*
X131487219Y-115979561D02*
X131439600Y-115884323D01*
X131439600Y-115884323D02*
X131391981Y-115693847D01*
X131391981Y-115693847D02*
X131391981Y-115550990D01*
X131391981Y-115550990D02*
X131439600Y-115360514D01*
X131439600Y-115360514D02*
X131487219Y-115265276D01*
X131487219Y-115265276D02*
X131582457Y-115170038D01*
X131582457Y-115170038D02*
X131725314Y-115122419D01*
X131725314Y-115122419D02*
X131820552Y-115122419D01*
X131820552Y-115122419D02*
X131963409Y-115170038D01*
X131963409Y-115170038D02*
X132011028Y-115217657D01*
X132730091Y-111249665D02*
X133437198Y-110542558D01*
X133437198Y-110542558D02*
X133706572Y-110811932D01*
X133706572Y-110811932D02*
X133740244Y-110912947D01*
X133740244Y-110912947D02*
X133740244Y-110980291D01*
X133740244Y-110980291D02*
X133706572Y-111081306D01*
X133706572Y-111081306D02*
X133605557Y-111182321D01*
X133605557Y-111182321D02*
X133504542Y-111215993D01*
X133504542Y-111215993D02*
X133437198Y-111215993D01*
X133437198Y-111215993D02*
X133336183Y-111182321D01*
X133336183Y-111182321D02*
X133066809Y-110912947D01*
X133538213Y-112057787D02*
X133504542Y-111956772D01*
X133504542Y-111956772D02*
X133504542Y-111889428D01*
X133504542Y-111889428D02*
X133538213Y-111788413D01*
X133538213Y-111788413D02*
X133740244Y-111586382D01*
X133740244Y-111586382D02*
X133841259Y-111552711D01*
X133841259Y-111552711D02*
X133908603Y-111552711D01*
X133908603Y-111552711D02*
X134009618Y-111586382D01*
X134009618Y-111586382D02*
X134110633Y-111687398D01*
X134110633Y-111687398D02*
X134144305Y-111788413D01*
X134144305Y-111788413D02*
X134144305Y-111855756D01*
X134144305Y-111855756D02*
X134110633Y-111956772D01*
X134110633Y-111956772D02*
X133908603Y-112158802D01*
X133908603Y-112158802D02*
X133807588Y-112192474D01*
X133807588Y-112192474D02*
X133740244Y-112192474D01*
X133740244Y-112192474D02*
X133639229Y-112158802D01*
X133639229Y-112158802D02*
X133538213Y-112057787D01*
X134481023Y-112057787D02*
X134144305Y-112663878D01*
X134144305Y-112663878D02*
X134615710Y-112461848D01*
X134615710Y-112461848D02*
X134413679Y-112933252D01*
X134413679Y-112933252D02*
X135019771Y-112596535D01*
X135120786Y-113573016D02*
X135019771Y-113539344D01*
X135019771Y-113539344D02*
X134885084Y-113404657D01*
X134885084Y-113404657D02*
X134851412Y-113303642D01*
X134851412Y-113303642D02*
X134885084Y-113202626D01*
X134885084Y-113202626D02*
X135154458Y-112933252D01*
X135154458Y-112933252D02*
X135255473Y-112899581D01*
X135255473Y-112899581D02*
X135356488Y-112933252D01*
X135356488Y-112933252D02*
X135491175Y-113067939D01*
X135491175Y-113067939D02*
X135524847Y-113168955D01*
X135524847Y-113168955D02*
X135491175Y-113269970D01*
X135491175Y-113269970D02*
X135423832Y-113337313D01*
X135423832Y-113337313D02*
X135019771Y-113067939D01*
X135423832Y-113943405D02*
X135895236Y-113472000D01*
X135760549Y-113606687D02*
X135861564Y-113573016D01*
X135861564Y-113573016D02*
X135928908Y-113573016D01*
X135928908Y-113573016D02*
X136029923Y-113606687D01*
X136029923Y-113606687D02*
X136097267Y-113674031D01*
X118299665Y-114169908D02*
X117592558Y-113462801D01*
X117592558Y-113462801D02*
X117760917Y-113294442D01*
X117760917Y-113294442D02*
X117895604Y-113227098D01*
X117895604Y-113227098D02*
X118030291Y-113227098D01*
X118030291Y-113227098D02*
X118131306Y-113260770D01*
X118131306Y-113260770D02*
X118299665Y-113361786D01*
X118299665Y-113361786D02*
X118400680Y-113462801D01*
X118400680Y-113462801D02*
X118501695Y-113631160D01*
X118501695Y-113631160D02*
X118535367Y-113732175D01*
X118535367Y-113732175D02*
X118535367Y-113866862D01*
X118535367Y-113866862D02*
X118468024Y-114001549D01*
X118468024Y-114001549D02*
X118299665Y-114169908D01*
X119309817Y-113159755D02*
X118939428Y-112789366D01*
X118939428Y-112789366D02*
X118838413Y-112755694D01*
X118838413Y-112755694D02*
X118737398Y-112789366D01*
X118737398Y-112789366D02*
X118602711Y-112924053D01*
X118602711Y-112924053D02*
X118569039Y-113025068D01*
X119276146Y-113126083D02*
X119242474Y-113227098D01*
X119242474Y-113227098D02*
X119074115Y-113395457D01*
X119074115Y-113395457D02*
X118973100Y-113429129D01*
X118973100Y-113429129D02*
X118872085Y-113395457D01*
X118872085Y-113395457D02*
X118804741Y-113328114D01*
X118804741Y-113328114D02*
X118771069Y-113227098D01*
X118771069Y-113227098D02*
X118804741Y-113126083D01*
X118804741Y-113126083D02*
X118973100Y-112957724D01*
X118973100Y-112957724D02*
X119006772Y-112856709D01*
X119074115Y-112452648D02*
X119343489Y-112183274D01*
X118939428Y-112115931D02*
X119545520Y-112722022D01*
X119545520Y-112722022D02*
X119646535Y-112755694D01*
X119646535Y-112755694D02*
X119747550Y-112722022D01*
X119747550Y-112722022D02*
X119814894Y-112654679D01*
X120353642Y-112115930D02*
X119983253Y-111745541D01*
X119983253Y-111745541D02*
X119882237Y-111711869D01*
X119882237Y-111711869D02*
X119781222Y-111745541D01*
X119781222Y-111745541D02*
X119646535Y-111880228D01*
X119646535Y-111880228D02*
X119612863Y-111981243D01*
X120319970Y-112082259D02*
X120286298Y-112183274D01*
X120286298Y-112183274D02*
X120117940Y-112351633D01*
X120117940Y-112351633D02*
X120016924Y-112385304D01*
X120016924Y-112385304D02*
X119915909Y-112351633D01*
X119915909Y-112351633D02*
X119848566Y-112284289D01*
X119848566Y-112284289D02*
X119814894Y-112183274D01*
X119814894Y-112183274D02*
X119848566Y-112082259D01*
X119848566Y-112082259D02*
X120016924Y-111913900D01*
X120016924Y-111913900D02*
X120050596Y-111812885D01*
D11*
%TO.C,P1*%
X122300000Y-94070000D02*
X122300000Y-86810000D01*
X123800000Y-94069999D02*
X122300000Y-94070000D01*
X131800000Y-94070000D02*
X130300000Y-94069999D01*
X131800000Y-94070000D02*
X131800000Y-86810000D01*
%TD*%
%LPC*%
D12*
%TO.C,P1*%
X130650000Y-93060000D03*
D13*
X123450000Y-93060000D03*
D14*
X129800000Y-93720000D03*
X129300000Y-93720000D03*
X128800000Y-93720000D03*
X128300000Y-93720001D03*
X127800000Y-93720000D03*
X127300000Y-93720000D03*
X126800000Y-93720000D03*
X126300000Y-93720000D03*
X125800000Y-93720001D03*
X125300000Y-93720000D03*
X124800000Y-93720000D03*
X124300000Y-93720000D03*
D12*
X124250000Y-92410000D03*
X124650000Y-91710000D03*
X125450000Y-91710000D03*
X125850000Y-92410000D03*
X126250000Y-91710000D03*
X126650000Y-92410000D03*
X127450000Y-92410000D03*
X127850000Y-91710000D03*
X128250000Y-92410000D03*
X128650000Y-91710000D03*
X129450000Y-91710000D03*
X129850000Y-92410000D03*
D15*
X131540000Y-85860000D03*
X131180000Y-91810000D03*
X122920000Y-91810000D03*
X122560000Y-85860000D03*
%TD*%
D12*
%TO.C,J1*%
X120178570Y-108162599D03*
D16*
X115087401Y-103071430D03*
D12*
X115193467Y-104096735D03*
X114981335Y-104874552D03*
X115547021Y-105440238D03*
X116324838Y-105228106D03*
X116112706Y-106005923D03*
X116890523Y-105793791D03*
X117456209Y-106359477D03*
X117244077Y-107137294D03*
X118021894Y-106925162D03*
X117809762Y-107702979D03*
X118375448Y-108268665D03*
X119153265Y-108056533D03*
D17*
X115716726Y-113883093D03*
X119669453Y-109421249D03*
X113828751Y-103580547D03*
X109366907Y-107533274D03*
%TD*%
D12*
%TO.C,J2*%
X139012599Y-103071430D03*
D18*
X133921430Y-108162599D03*
D12*
X134946735Y-108056533D03*
X135724552Y-108268665D03*
X136290238Y-107702979D03*
X136078106Y-106925162D03*
X136855923Y-107137294D03*
X136643791Y-106359477D03*
X137209477Y-105793791D03*
X137987294Y-106005923D03*
X137775162Y-105228106D03*
X138552979Y-105440238D03*
X139118665Y-104874552D03*
X138906533Y-104096735D03*
D19*
X144733093Y-107533274D03*
X140271249Y-103580547D03*
X134430547Y-109421249D03*
X138383274Y-113883093D03*
%TD*%
%LPD*%
M02*
