%TF.GenerationSoftware,KiCad,Pcbnew,9.0.4*%
%TF.CreationDate,2025-08-24T11:28:45-04:00*%
%TF.ProjectId,usbc-data-splitter,75736263-2d64-4617-9461-2d73706c6974,rev?*%
%TF.SameCoordinates,Original*%
%TF.FileFunction,Soldermask,Bot*%
%TF.FilePolarity,Negative*%
%FSLAX46Y46*%
G04 Gerber Fmt 4.6, Leading zero omitted, Abs format (unit mm)*
G04 Created by KiCad (PCBNEW 9.0.4) date 2025-08-24 11:28:45*
%MOMM*%
%LPD*%
G01*
G04 APERTURE LIST*
G04 Aperture macros list*
%AMHorizOval*
0 Thick line with rounded ends*
0 $1 width*
0 $2 $3 position (X,Y) of the first rounded end (center of the circle)*
0 $4 $5 position (X,Y) of the second rounded end (center of the circle)*
0 Add line between two ends*
20,1,$1,$2,$3,$4,$5,0*
0 Add two circle primitives to create the rounded ends*
1,1,$1,$2,$3*
1,1,$1,$4,$5*%
%AMRotRect*
0 Rectangle, with rotation*
0 The origin of the aperture is its center*
0 $1 length*
0 $2 width*
0 $3 Rotation angle, in degrees counterclockwise*
0 Add horizontal line*
21,1,$1,$2,0,0,$3*%
G04 Aperture macros list end*
%ADD10C,0.650000*%
%ADD11O,0.950000X0.650000*%
%ADD12O,0.800000X1.400000*%
%ADD13HorizOval,0.650000X-0.106066X0.106066X0.106066X-0.106066X0*%
%ADD14RotRect,0.300000X0.700000X135.000000*%
%ADD15HorizOval,0.800000X0.212132X0.212132X-0.212132X-0.212132X0*%
%ADD16HorizOval,0.650000X-0.106066X-0.106066X0.106066X0.106066X0*%
%ADD17RotRect,0.300000X0.700000X225.000000*%
%ADD18HorizOval,0.800000X-0.212132X0.212132X0.212132X-0.212132X0*%
G04 APERTURE END LIST*
D10*
%TO.C,P1*%
X130650000Y-93060000D03*
D11*
X123450000Y-93060000D03*
D10*
X124250000Y-92410000D03*
X124650000Y-91710000D03*
X125450000Y-91710000D03*
X125850000Y-92410000D03*
X126250000Y-91710000D03*
X126650000Y-92410000D03*
X127450000Y-92410000D03*
X127850000Y-91710000D03*
X128250000Y-92410000D03*
X128650000Y-91710000D03*
X129450000Y-91710000D03*
X129850000Y-92410000D03*
D12*
X131540000Y-85860000D03*
X131180000Y-91810000D03*
X122920000Y-91810000D03*
X122560000Y-85860000D03*
%TD*%
D10*
%TO.C,J1*%
X120178570Y-108162599D03*
D13*
X115087401Y-103071430D03*
D14*
X120044220Y-107094868D03*
X119690666Y-106741314D03*
X119337113Y-106387761D03*
X118983560Y-106034207D03*
X118630006Y-105680654D03*
X118276453Y-105327101D03*
X117922899Y-104973547D03*
X117569346Y-104619994D03*
X117215793Y-104266440D03*
X116862239Y-103912887D03*
X116508686Y-103559334D03*
X116155132Y-103205780D03*
D10*
X115193467Y-104096735D03*
X114981335Y-104874552D03*
X115547021Y-105440238D03*
X116324838Y-105228106D03*
X116112706Y-106005923D03*
X116890523Y-105793791D03*
X117456209Y-106359477D03*
X117244077Y-107137294D03*
X118021894Y-106925162D03*
X117809762Y-107702979D03*
X118375448Y-108268665D03*
X119153265Y-108056533D03*
D15*
X115716726Y-113883093D03*
X119669453Y-109421249D03*
X113828751Y-103580547D03*
X109366907Y-107533274D03*
%TD*%
D10*
%TO.C,J2*%
X139012599Y-103071430D03*
D16*
X133921430Y-108162599D03*
D17*
X137944868Y-103205780D03*
X137591314Y-103559334D03*
X137237761Y-103912887D03*
X136884207Y-104266440D03*
X136530654Y-104619994D03*
X136177101Y-104973547D03*
X135823547Y-105327101D03*
X135469994Y-105680654D03*
X135116440Y-106034207D03*
X134762887Y-106387761D03*
X134409334Y-106741314D03*
X134055780Y-107094868D03*
D10*
X134946735Y-108056533D03*
X135724552Y-108268665D03*
X136290238Y-107702979D03*
X136078106Y-106925162D03*
X136855923Y-107137294D03*
X136643791Y-106359477D03*
X137209477Y-105793791D03*
X137987294Y-106005923D03*
X137775162Y-105228106D03*
X138552979Y-105440238D03*
X139118665Y-104874552D03*
X138906533Y-104096735D03*
D18*
X144733093Y-107533274D03*
X140271249Y-103580547D03*
X134430547Y-109421249D03*
X138383274Y-113883093D03*
%TD*%
M02*
