%TF.GenerationSoftware,KiCad,Pcbnew,9.0.4*%
%TF.CreationDate,2025-08-23T22:47:15-04:00*%
%TF.ProjectId,usbc-data-splitter,75736263-2d64-4617-9461-2d73706c6974,rev?*%
%TF.SameCoordinates,Original*%
%TF.FileFunction,Soldermask,Top*%
%TF.FilePolarity,Negative*%
%FSLAX46Y46*%
G04 Gerber Fmt 4.6, Leading zero omitted, Abs format (unit mm)*
G04 Created by KiCad (PCBNEW 9.0.4) date 2025-08-23 22:47:15*
%MOMM*%
%LPD*%
G01*
G04 APERTURE LIST*
G04 Aperture macros list*
%AMHorizOval*
0 Thick line with rounded ends*
0 $1 width*
0 $2 $3 position (X,Y) of the first rounded end (center of the circle)*
0 $4 $5 position (X,Y) of the second rounded end (center of the circle)*
0 Add line between two ends*
20,1,$1,$2,$3,$4,$5,0*
0 Add two circle primitives to create the rounded ends*
1,1,$1,$2,$3*
1,1,$1,$4,$5*%
G04 Aperture macros list end*
%ADD10R,0.300000X0.700000*%
%ADD11C,0.650000*%
%ADD12O,0.800000X1.400000*%
%ADD13HorizOval,0.800000X0.212132X0.212132X-0.212132X-0.212132X0*%
%ADD14HorizOval,0.800000X-0.212132X0.212132X0.212132X-0.212132X0*%
G04 APERTURE END LIST*
D10*
%TO.C,P1*%
X129800000Y-93720000D03*
X129300000Y-93720000D03*
X128800000Y-93720000D03*
X128300000Y-93720001D03*
X127800000Y-93720000D03*
X127300000Y-93720000D03*
X126800000Y-93720000D03*
X126300000Y-93720000D03*
X125800000Y-93720001D03*
X125300000Y-93720000D03*
X124800000Y-93720000D03*
X124300000Y-93720000D03*
D11*
X124250000Y-92410000D03*
X124650000Y-91710000D03*
X125450000Y-91710000D03*
X125850000Y-92410000D03*
X126250000Y-91710000D03*
X126650000Y-92410000D03*
X127450000Y-92410000D03*
X127850000Y-91710000D03*
X128250000Y-92410000D03*
X128650000Y-91710000D03*
X129450000Y-91710000D03*
X129850000Y-92410000D03*
D12*
X131540000Y-85860000D03*
X131180000Y-91810000D03*
X122920000Y-91810000D03*
X122560000Y-85860000D03*
%TD*%
D11*
%TO.C,J1*%
X115193467Y-104096735D03*
X114981335Y-104874552D03*
X115547021Y-105440238D03*
X116324838Y-105228106D03*
X116112706Y-106005923D03*
X116890523Y-105793791D03*
X117456209Y-106359477D03*
X117244077Y-107137294D03*
X118021894Y-106925162D03*
X117809762Y-107702979D03*
X118375448Y-108268665D03*
X119153265Y-108056533D03*
D13*
X115716726Y-113883093D03*
X119669453Y-109421249D03*
X113828751Y-103580547D03*
X109366907Y-107533274D03*
%TD*%
D11*
%TO.C,J2*%
X134946735Y-108056533D03*
X135724552Y-108268665D03*
X136290238Y-107702979D03*
X136078106Y-106925162D03*
X136855923Y-107137294D03*
X136643791Y-106359477D03*
X137209477Y-105793791D03*
X137987294Y-106005923D03*
X137775162Y-105228106D03*
X138552979Y-105440238D03*
X139118665Y-104874552D03*
X138906533Y-104096735D03*
D14*
X144733093Y-107533274D03*
X140271249Y-103580547D03*
X134430547Y-109421249D03*
X138383274Y-113883093D03*
%TD*%
M02*
