%TF.GenerationSoftware,KiCad,Pcbnew,9.0.4*%
%TF.CreationDate,2025-08-24T11:28:45-04:00*%
%TF.ProjectId,usbc-data-splitter,75736263-2d64-4617-9461-2d73706c6974,rev?*%
%TF.SameCoordinates,Original*%
%TF.FileFunction,Copper,L1,Top*%
%TF.FilePolarity,Positive*%
%FSLAX46Y46*%
G04 Gerber Fmt 4.6, Leading zero omitted, Abs format (unit mm)*
G04 Created by KiCad (PCBNEW 9.0.4) date 2025-08-24 11:28:45*
%MOMM*%
%LPD*%
G01*
G04 APERTURE LIST*
G04 Aperture macros list*
%AMHorizOval*
0 Thick line with rounded ends*
0 $1 width*
0 $2 $3 position (X,Y) of the first rounded end (center of the circle)*
0 $4 $5 position (X,Y) of the second rounded end (center of the circle)*
0 Add line between two ends*
20,1,$1,$2,$3,$4,$5,0*
0 Add two circle primitives to create the rounded ends*
1,1,$1,$2,$3*
1,1,$1,$4,$5*%
G04 Aperture macros list end*
%TA.AperFunction,SMDPad,CuDef*%
%ADD10R,0.300000X0.700000*%
%TD*%
%TA.AperFunction,HeatsinkPad*%
%ADD11C,0.650000*%
%TD*%
%TA.AperFunction,HeatsinkPad*%
%ADD12O,0.800000X1.400000*%
%TD*%
%TA.AperFunction,HeatsinkPad*%
%ADD13HorizOval,0.800000X0.212132X0.212132X-0.212132X-0.212132X0*%
%TD*%
%TA.AperFunction,HeatsinkPad*%
%ADD14HorizOval,0.800000X-0.212132X0.212132X0.212132X-0.212132X0*%
%TD*%
%TA.AperFunction,ViaPad*%
%ADD15C,0.600000*%
%TD*%
%TA.AperFunction,Conductor*%
%ADD16C,0.200000*%
%TD*%
G04 APERTURE END LIST*
D10*
%TO.P,P1,A1,GND*%
%TO.N,GND*%
X129800000Y-93720000D03*
%TO.P,P1,A2,TX1+*%
%TO.N,TX1_P*%
X129300000Y-93720000D03*
%TO.P,P1,A3,TX1-*%
%TO.N,TX1_N*%
X128800000Y-93720000D03*
%TO.P,P1,A4,VBUS*%
%TO.N,VBUS*%
X128300000Y-93720001D03*
%TO.P,P1,A5,CC*%
%TO.N,CC*%
X127800000Y-93720000D03*
%TO.P,P1,A6,D+*%
%TO.N,D_P*%
X127300000Y-93720000D03*
%TO.P,P1,A7,D-*%
%TO.N,D_N*%
X126800000Y-93720000D03*
%TO.P,P1,A8,SBU1*%
%TO.N,SBU1*%
X126300000Y-93720000D03*
%TO.P,P1,A9,VBUS*%
%TO.N,VBUS*%
X125800000Y-93720001D03*
%TO.P,P1,A10,RX2-*%
%TO.N,RX2_N*%
X125300000Y-93720000D03*
%TO.P,P1,A11,RX2+*%
%TO.N,RX2_P*%
X124800000Y-93720000D03*
%TO.P,P1,A12,GND*%
%TO.N,GND*%
X124300000Y-93720000D03*
D11*
%TO.P,P1,B1,GND*%
X124250000Y-92410000D03*
%TO.P,P1,B2,TX2+*%
%TO.N,TX2_P*%
X124650000Y-91710000D03*
%TO.P,P1,B3,TX2-*%
%TO.N,TX2_N*%
X125450000Y-91710000D03*
%TO.P,P1,B4,VBUS*%
%TO.N,VBUS*%
X125850000Y-92410000D03*
%TO.P,P1,B5,VCONN*%
%TO.N,VCON*%
X126250000Y-91710000D03*
%TO.P,P1,B6*%
%TO.N,N/C*%
X126650000Y-92410000D03*
%TO.P,P1,B7*%
X127450000Y-92410000D03*
%TO.P,P1,B8,SBU2*%
%TO.N,SBU2*%
X127850000Y-91710000D03*
%TO.P,P1,B9,VBUS*%
%TO.N,VBUS*%
X128250000Y-92410000D03*
%TO.P,P1,B10,RX1-*%
%TO.N,RX1_N*%
X128650000Y-91710000D03*
%TO.P,P1,B11,RX1+*%
%TO.N,RX1_P*%
X129450000Y-91710000D03*
%TO.P,P1,B12,GND*%
%TO.N,GND*%
X129850000Y-92410000D03*
D12*
%TO.P,P1,S1,SHIELD*%
X131540000Y-85860000D03*
X131180000Y-91810000D03*
X122920000Y-91810000D03*
X122560000Y-85860000D03*
%TD*%
D11*
%TO.P,J1,B1,GND*%
%TO.N,GND*%
X115193467Y-104096735D03*
%TO.P,J1,B2,TX2+*%
%TO.N,TX2_P*%
X114981335Y-104874552D03*
%TO.P,J1,B3,TX2-*%
%TO.N,TX2_N*%
X115547021Y-105440238D03*
%TO.P,J1,B4,VBUS*%
%TO.N,unconnected-(J1-VBUS-PadA4)_3*%
X116324838Y-105228106D03*
%TO.P,J1,B5,VCONN*%
%TO.N,unconnected-(J1-VCONN-PadB5)*%
X116112706Y-106005923D03*
%TO.P,J1,B6*%
%TO.N,N/C*%
X116890523Y-105793791D03*
%TO.P,J1,B7*%
X117456209Y-106359477D03*
%TO.P,J1,B8,SBU2*%
%TO.N,unconnected-(J1-SBU2-PadB8)*%
X117244077Y-107137294D03*
%TO.P,J1,B9,VBUS*%
%TO.N,unconnected-(J1-VBUS-PadA4)_2*%
X118021894Y-106925162D03*
%TO.P,J1,B10,RX1-*%
%TO.N,RX1_N*%
X117809762Y-107702979D03*
%TO.P,J1,B11,RX1+*%
%TO.N,RX1_P*%
X118375448Y-108268665D03*
%TO.P,J1,B12,GND*%
%TO.N,GND*%
X119153265Y-108056533D03*
D13*
%TO.P,J1,S1,SHIELD*%
X115716726Y-113883093D03*
X119669453Y-109421249D03*
X113828751Y-103580547D03*
X109366907Y-107533274D03*
%TD*%
D11*
%TO.P,J2,B1,GND*%
%TO.N,GND*%
X134946735Y-108056533D03*
%TO.P,J2,B2*%
%TO.N,N/C*%
X135724552Y-108268665D03*
%TO.P,J2,B3*%
X136290238Y-107702979D03*
%TO.P,J2,B4,VBUS*%
%TO.N,VBUS*%
X136078106Y-106925162D03*
%TO.P,J2,B5,CC2*%
%TO.N,VCON*%
X136855923Y-107137294D03*
%TO.P,J2,B6,D+*%
%TO.N,unconnected-(J2-D+-PadB6)*%
X136643791Y-106359477D03*
%TO.P,J2,B7,D-*%
%TO.N,unconnected-(J2-D--PadB7)*%
X137209477Y-105793791D03*
%TO.P,J2,B8,SBU2*%
%TO.N,SBU2*%
X137987294Y-106005923D03*
%TO.P,J2,B9,VBUS*%
%TO.N,VBUS*%
X137775162Y-105228106D03*
%TO.P,J2,B10*%
%TO.N,N/C*%
X138552979Y-105440238D03*
%TO.P,J2,B11*%
X139118665Y-104874552D03*
%TO.P,J2,B12,GND*%
%TO.N,GND*%
X138906533Y-104096735D03*
D14*
%TO.P,J2,S1,SHIELD*%
X144733093Y-107533274D03*
X140271249Y-103580547D03*
X134430547Y-109421249D03*
X138383274Y-113883093D03*
%TD*%
D15*
%TO.N,GND*%
X137550000Y-101600000D03*
X121600000Y-107200000D03*
X130425000Y-94975000D03*
X140200000Y-104750000D03*
X129650000Y-87350000D03*
X116650000Y-109800000D03*
X122650000Y-94350000D03*
%TO.N,RX1_P*%
X118623590Y-110072548D03*
%TO.N,D_P*%
X121925521Y-103875521D03*
%TO.N,TX2_P*%
X112500521Y-104649479D03*
%TO.N,D_N*%
X121324479Y-103274479D03*
%TO.N,TX1_P*%
X121500000Y-105650000D03*
%TO.N,RX2_P*%
X123800000Y-95850000D03*
%TO.N,TX1_N*%
X121500000Y-104800000D03*
%TO.N,RX2_N*%
X124650000Y-95850000D03*
%TO.N,TX2_N*%
X111899479Y-105250521D03*
%TO.N,RX1_N*%
X118022548Y-110673590D03*
%TO.N,VBUS*%
X126204136Y-97904136D03*
X135050000Y-103600000D03*
X128850000Y-96950000D03*
X133250000Y-105750000D03*
%TO.N,CC*%
X128171599Y-97374000D03*
%TO.N,SBU1*%
X126050000Y-96300000D03*
%TD*%
D16*
%TO.N,GND*%
X129800000Y-94000000D02*
X129800000Y-93720000D01*
X113828751Y-103580547D02*
X114351700Y-104103496D01*
X129800000Y-93720000D02*
X129800000Y-92460000D01*
X140200000Y-104750000D02*
X139755061Y-104305061D01*
X122374000Y-93824000D02*
X122374000Y-92356000D01*
X139755061Y-104305061D02*
X139755061Y-104096735D01*
X130450000Y-91810000D02*
X131180000Y-91810000D01*
X119153265Y-108056533D02*
X119153265Y-108376146D01*
X123659562Y-91810000D02*
X124254781Y-92405219D01*
X130425000Y-94975000D02*
X130425000Y-94625000D01*
X138906533Y-104096735D02*
X139755061Y-104096735D01*
X134953496Y-108898300D02*
X134953496Y-108056533D01*
X124300000Y-93720000D02*
X123670000Y-94350000D01*
X139755061Y-104096735D02*
X140271249Y-103580547D01*
X122920000Y-91810000D02*
X123659562Y-91810000D01*
X114351700Y-104103496D02*
X115193467Y-104103496D01*
X119153265Y-108376146D02*
X117729411Y-109800000D01*
X122550000Y-94000000D02*
X122374000Y-93824000D01*
X117729411Y-109800000D02*
X116650000Y-109800000D01*
X124020000Y-94000000D02*
X122550000Y-94000000D01*
X122374000Y-92356000D02*
X122920000Y-91810000D01*
X129850000Y-92410000D02*
X130450000Y-91810000D01*
X124300000Y-93720000D02*
X124020000Y-94000000D01*
X130425000Y-94625000D02*
X129800000Y-94000000D01*
X134430547Y-109421249D02*
X134953496Y-108898300D01*
X123670000Y-94350000D02*
X122650000Y-94350000D01*
X129800000Y-92460000D02*
X129850000Y-92410000D01*
X119669453Y-109421249D02*
X120078751Y-109421249D01*
%TO.N,RX1_P*%
X132025000Y-95953438D02*
X132025000Y-96073438D01*
X131298985Y-96913438D02*
X131785000Y-96913438D01*
X132025000Y-98125000D02*
X119625000Y-110525000D01*
X131785000Y-96313438D02*
X131298985Y-96313438D01*
X129450000Y-91710000D02*
X129450000Y-91546397D01*
X119625000Y-110525000D02*
X118793199Y-110525000D01*
X131299010Y-94513438D02*
X131785000Y-94513438D01*
X131806802Y-90725000D02*
X132025000Y-90943198D01*
X130271397Y-90725000D02*
X131806802Y-90725000D01*
X131699010Y-95713438D02*
X131785000Y-95713438D01*
X118623590Y-110355391D02*
X118623590Y-110072548D01*
X132025000Y-90943198D02*
X132025000Y-93673438D01*
X132025000Y-97153438D02*
X132025000Y-97273438D01*
X131058985Y-96553438D02*
X131058985Y-96673438D01*
X132025000Y-97273438D02*
X132025000Y-97684740D01*
X118793199Y-110525000D02*
X118623590Y-110355391D01*
X131459010Y-95353438D02*
X131459010Y-95473438D01*
X132025000Y-97684740D02*
X132025000Y-98125000D01*
X131785000Y-95113438D02*
X131699010Y-95113438D01*
X132025000Y-94753438D02*
X132025000Y-94873438D01*
X129450000Y-91546397D02*
X130271397Y-90725000D01*
X131059010Y-94153438D02*
X131059010Y-94273438D01*
X131785000Y-93913438D02*
X131299010Y-93913438D01*
X132025000Y-96073438D02*
G75*
G02*
X131785000Y-96313400I-240000J38D01*
G01*
X131699010Y-95113438D02*
G75*
G03*
X131459038Y-95353438I-10J-239962D01*
G01*
X132025000Y-94873438D02*
G75*
G02*
X131785000Y-95113400I-240000J38D01*
G01*
X131785000Y-95713438D02*
G75*
G02*
X132024962Y-95953438I0J-239962D01*
G01*
X131785000Y-94513438D02*
G75*
G02*
X132024962Y-94753438I0J-239962D01*
G01*
X131299010Y-93913438D02*
G75*
G03*
X131059038Y-94153438I-10J-239962D01*
G01*
X131459010Y-95473438D02*
G75*
G03*
X131699010Y-95713390I239990J38D01*
G01*
X131298985Y-96313438D02*
G75*
G03*
X131059038Y-96553438I15J-239962D01*
G01*
X131785000Y-96913438D02*
G75*
G02*
X132024962Y-97153438I0J-239962D01*
G01*
X131059010Y-94273438D02*
G75*
G03*
X131299010Y-94513390I239990J38D01*
G01*
X132025000Y-93673438D02*
G75*
G02*
X131785000Y-93913400I-240000J38D01*
G01*
X131058985Y-96673438D02*
G75*
G03*
X131298985Y-96913415I240015J38D01*
G01*
%TO.N,D_P*%
X126563083Y-98955116D02*
X126639467Y-98955116D01*
X126639467Y-98955116D02*
X127275000Y-98319583D01*
X127300000Y-94245001D02*
X127300000Y-93720000D01*
X127275000Y-98319583D02*
X127275000Y-94270001D01*
X121925521Y-103592678D02*
X126563083Y-98955116D01*
X121925521Y-103875521D02*
X121925521Y-103592678D01*
X127275000Y-94270001D02*
X127300000Y-94245001D01*
%TO.N,TX2_P*%
X113749862Y-101050943D02*
X114117557Y-101418638D01*
X112901333Y-101899472D02*
X113269028Y-102267167D01*
X121825000Y-92636394D02*
X121825000Y-90743198D01*
X112349480Y-102111914D02*
X112561922Y-101899472D01*
X112349480Y-104498438D02*
X112349480Y-102111914D01*
X124650000Y-91546397D02*
X124650000Y-91710000D01*
X112500521Y-104649479D02*
X112349480Y-104498438D01*
X124650000Y-91710000D02*
X124824999Y-91535001D01*
X114258979Y-100202414D02*
X114381622Y-100079772D01*
X121825000Y-90743198D02*
X122243198Y-90325000D01*
X113693291Y-101842902D02*
X113325595Y-101475206D01*
X122243198Y-90325000D02*
X123428603Y-90325000D01*
X114174124Y-100287266D02*
X114258979Y-100202414D01*
X113325595Y-101135795D02*
X113410450Y-101050943D01*
X113608439Y-102267167D02*
X113693291Y-102182314D01*
X114381622Y-100079772D02*
X121825000Y-92636394D01*
X123428603Y-90325000D02*
X124650000Y-91546397D01*
X113410450Y-101050943D02*
X113410451Y-101050943D01*
X114456968Y-101418638D02*
X114541820Y-101333785D01*
X114541820Y-100994373D02*
X114174124Y-100626677D01*
X114174124Y-100626677D02*
G75*
G02*
X114174152Y-100287295I169676J169677D01*
G01*
X114541820Y-101333785D02*
G75*
G03*
X114541799Y-100994394I-169720J169685D01*
G01*
X113269028Y-102267167D02*
G75*
G03*
X113608439Y-102267168I169706J169707D01*
G01*
X114117557Y-101418638D02*
G75*
G03*
X114456968Y-101418639I169706J169707D01*
G01*
X113410451Y-101050943D02*
G75*
G02*
X113749862Y-101050942I169706J-169707D01*
G01*
X113325595Y-101475206D02*
G75*
G02*
X113325594Y-101135794I169705J169706D01*
G01*
X113693291Y-102182314D02*
G75*
G03*
X113693299Y-101842894I-169691J169714D01*
G01*
X112561922Y-101899472D02*
G75*
G02*
X112901333Y-101899471I169706J-169707D01*
G01*
%TO.N,D_N*%
X125485880Y-99395919D02*
X125292556Y-99589244D01*
X126825000Y-94270001D02*
X126825000Y-98133215D01*
X126825000Y-98133215D02*
X126453079Y-98505136D01*
X126453079Y-98505136D02*
X126376665Y-98505136D01*
X124115337Y-100766464D02*
X121607322Y-103274479D01*
X121607322Y-103274479D02*
X121324479Y-103274479D01*
X126800000Y-94245001D02*
X126825000Y-94270001D01*
X126376665Y-98505136D02*
X126141085Y-98740716D01*
X125679205Y-98740716D02*
X125485880Y-98934040D01*
X125292556Y-99589244D02*
X124115337Y-100766464D01*
X126800000Y-93720000D02*
X126800000Y-94245001D01*
X125485880Y-99164980D02*
G75*
G02*
X125485831Y-99395869I-115480J-115420D01*
G01*
X125910145Y-98740716D02*
G75*
G03*
X125679205Y-98740716I-115470J-115471D01*
G01*
X126141085Y-98740716D02*
G75*
G02*
X125910145Y-98740716I-115470J115471D01*
G01*
X125485880Y-98934040D02*
G75*
G03*
X125485890Y-99164970I115520J-115460D01*
G01*
%TO.N,TX1_P*%
X123914953Y-104010048D02*
X123755853Y-103850948D01*
X121699999Y-105450001D02*
X122528519Y-105450001D01*
X125718076Y-102206928D02*
X125718074Y-102206925D01*
X127167644Y-101075554D02*
X128024524Y-100218674D01*
X127026221Y-101216974D02*
X127167644Y-101075554D01*
X125329165Y-102595832D02*
X125329168Y-102595833D01*
X128024524Y-100218674D02*
X130225000Y-98018198D01*
X125718074Y-102206925D02*
X126000916Y-102489768D01*
X125558976Y-102047828D02*
X125718076Y-102206928D01*
X122528519Y-105450001D02*
X122793197Y-105450001D01*
X127114611Y-101552850D02*
X127026221Y-101464460D01*
X125700397Y-102967064D02*
X125488264Y-102754931D01*
X124303862Y-103621141D02*
X124303860Y-103621139D01*
X125329168Y-102595833D02*
X125170068Y-102436733D01*
X123861919Y-103179198D02*
X124144762Y-103462041D01*
X129300000Y-94245001D02*
X129300000Y-93720000D01*
X124286181Y-104381279D02*
X124197791Y-104292889D01*
X124144762Y-103462041D02*
X124303862Y-103621141D01*
X125558976Y-103992371D02*
X125700397Y-103850949D01*
X126973190Y-102578157D02*
X127114611Y-102436735D01*
X124922581Y-101941760D02*
X125064002Y-101800340D01*
X130225000Y-96056802D02*
X129275000Y-95106802D01*
X126000916Y-102489768D02*
X126089306Y-102578157D01*
X129275000Y-94270001D02*
X129300000Y-94245001D01*
X124144760Y-105406586D02*
X124286181Y-105265164D01*
X123914949Y-104010047D02*
X123914953Y-104010048D01*
X121500000Y-105650000D02*
X121699999Y-105450001D01*
X123473010Y-103320620D02*
X123614433Y-103179198D01*
X125488264Y-102754931D02*
X125329165Y-102595832D01*
X125170068Y-102436733D02*
X124922581Y-102189246D01*
X130225000Y-98018198D02*
X130225000Y-96056802D01*
X123172487Y-105318197D02*
X123260876Y-105406586D01*
X123755853Y-103850948D02*
X123473010Y-103568106D01*
X124462960Y-103780239D02*
X124675092Y-103992371D01*
X122793197Y-105450001D02*
X122925001Y-105318197D01*
X129275000Y-95106802D02*
X129275000Y-94270001D01*
X125311488Y-101800340D02*
X125558976Y-102047828D01*
X124303860Y-103621139D02*
X124462960Y-103780239D01*
X124197791Y-104292889D02*
X123914949Y-104010047D01*
X123614433Y-103179198D02*
G75*
G02*
X123861919Y-103179198I123743J-123747D01*
G01*
X124922581Y-102189246D02*
G75*
G02*
X124922578Y-101941757I123719J123746D01*
G01*
X123260876Y-105406586D02*
G75*
G03*
X124144760Y-105406586I441942J441943D01*
G01*
X125064002Y-101800340D02*
G75*
G02*
X125311488Y-101800340I123743J-123740D01*
G01*
X123473010Y-103568106D02*
G75*
G02*
X123473047Y-103320657I123790J123706D01*
G01*
X126089306Y-102578157D02*
G75*
G03*
X126973190Y-102578157I441942J441943D01*
G01*
X127026221Y-101464460D02*
G75*
G02*
X127026204Y-101216957I123779J123760D01*
G01*
X125700397Y-103850949D02*
G75*
G03*
X125700404Y-102967057I-441897J441949D01*
G01*
X124675092Y-103992371D02*
G75*
G03*
X125558976Y-103992371I441942J441943D01*
G01*
X127114611Y-102436735D02*
G75*
G03*
X127114604Y-101552858I-441911J441935D01*
G01*
X122925001Y-105318197D02*
G75*
G02*
X123172487Y-105318197I123743J-123743D01*
G01*
X124286181Y-105265164D02*
G75*
G03*
X124286203Y-104381258I-441981J441964D01*
G01*
%TO.N,RX2_P*%
X123800000Y-95850000D02*
X124825000Y-94825000D01*
X124800000Y-94245001D02*
X124800000Y-93720000D01*
X124825000Y-94825000D02*
X124825000Y-94270001D01*
X124825000Y-94270001D02*
X124800000Y-94245001D01*
%TO.N,TX1_N*%
X125240777Y-103674172D02*
X125382198Y-103532750D01*
X124180118Y-102860999D02*
X124462961Y-103143842D01*
X126849445Y-100757355D02*
X127706326Y-99900476D01*
X123967983Y-104699479D02*
X123879593Y-104611089D01*
X122528519Y-104999999D02*
X122606803Y-104999999D01*
X123596752Y-104328249D02*
X123437652Y-104169149D01*
X123596751Y-104328247D02*
X123596752Y-104328249D01*
X125629688Y-101482140D02*
X125877176Y-101729628D01*
X129775000Y-97831802D02*
X129775000Y-96243198D01*
X129775000Y-96243198D02*
X128825000Y-95293198D01*
X124462961Y-103143842D02*
X124622061Y-103302942D01*
X124781159Y-103462040D02*
X124993291Y-103674172D01*
X128825000Y-94270001D02*
X128800000Y-94245001D01*
X126796412Y-101871050D02*
X126708022Y-101782660D01*
X127706326Y-99900476D02*
X129775000Y-97831802D01*
X122606803Y-104999999D02*
X122606802Y-104999998D01*
X123826562Y-105088387D02*
X123967983Y-104946965D01*
X125382198Y-103285264D02*
X125170065Y-103073131D01*
X126036276Y-101888728D02*
X126036273Y-101888726D01*
X124604381Y-101623561D02*
X124745804Y-101482139D01*
X126036273Y-101888726D02*
X126319116Y-102171568D01*
X123490687Y-104999998D02*
X123579076Y-105088387D01*
X125010967Y-102914034D02*
X124851867Y-102754934D01*
X125010966Y-102914032D02*
X125010967Y-102914034D01*
X126708022Y-100898776D02*
X126849445Y-100757355D01*
X125877176Y-101729628D02*
X126036276Y-101888728D01*
X123879593Y-104611089D02*
X123596751Y-104328247D01*
X126319116Y-102171568D02*
X126407505Y-102259958D01*
X128825000Y-95293198D02*
X128825000Y-94270001D01*
X121699999Y-104999999D02*
X122528519Y-104999999D01*
X121500000Y-104800000D02*
X121699999Y-104999999D01*
X123437652Y-104169149D02*
X123154810Y-103886306D01*
X126654991Y-102259958D02*
X126796412Y-102118536D01*
X124622061Y-103302942D02*
X124622059Y-103302940D01*
X123154811Y-103002420D02*
X123296232Y-102861000D01*
X124851867Y-102754934D02*
X124604380Y-102507447D01*
X125170065Y-103073131D02*
X125010966Y-102914032D01*
X128800000Y-94245001D02*
X128800000Y-93720000D01*
X124622059Y-103302940D02*
X124781159Y-103462040D01*
X125382198Y-103532750D02*
G75*
G03*
X125382205Y-103285257I-123698J123750D01*
G01*
X126407505Y-102259958D02*
G75*
G03*
X126654991Y-102259958I123743J123743D01*
G01*
X123296232Y-102861000D02*
G75*
G02*
X124180143Y-102860974I441968J-441900D01*
G01*
X123579076Y-105088387D02*
G75*
G03*
X123826562Y-105088387I123743J123743D01*
G01*
X124745804Y-101482139D02*
G75*
G02*
X125629642Y-101482185I441896J-441961D01*
G01*
X123967983Y-104946965D02*
G75*
G03*
X123968005Y-104699457I-123783J123765D01*
G01*
X123154810Y-103886306D02*
G75*
G02*
X123154847Y-103002456I441990J441906D01*
G01*
X124604380Y-102507447D02*
G75*
G02*
X124604377Y-101623556I441920J441947D01*
G01*
X122606802Y-104999998D02*
G75*
G02*
X123490687Y-104999997I441943J-441944D01*
G01*
X126796412Y-102118536D02*
G75*
G03*
X126796405Y-101871057I-123712J123736D01*
G01*
X124993291Y-103674172D02*
G75*
G03*
X125240777Y-103674172I123743J123743D01*
G01*
X126708022Y-101782660D02*
G75*
G02*
X126708004Y-100898758I441978J441960D01*
G01*
%TO.N,RX2_N*%
X124650000Y-95850000D02*
X124650000Y-95636397D01*
X124650000Y-95636397D02*
X125275000Y-95011397D01*
X125275000Y-94270001D02*
X125300000Y-94245001D01*
X125300000Y-94245001D02*
X125300000Y-93720000D01*
X125275000Y-95011397D02*
X125275000Y-94270001D01*
%TO.N,TX2_N*%
X111899479Y-101925521D02*
X121375000Y-92450000D01*
X111899479Y-105250521D02*
X111899479Y-101925521D01*
X124941098Y-91084000D02*
X125276000Y-91418902D01*
X125276000Y-91418902D02*
X125276000Y-91536000D01*
X121375000Y-92450000D02*
X121375000Y-90556802D01*
X121375000Y-90556802D02*
X122056802Y-89875000D01*
X124824000Y-91084000D02*
X124941098Y-91084000D01*
X122056802Y-89875000D02*
X123615000Y-89875000D01*
X123615000Y-89875000D02*
X124824000Y-91084000D01*
X125276000Y-91536000D02*
X125450000Y-91710000D01*
%TO.N,RX1_N*%
X132475000Y-98311394D02*
X132475000Y-90756802D01*
X132475000Y-90756802D02*
X131993198Y-90275000D01*
X118022548Y-110673590D02*
X118305391Y-110673590D01*
X118305391Y-110673590D02*
X118606801Y-110975000D01*
X131993198Y-90275000D02*
X130085000Y-90275000D01*
X128824000Y-91450702D02*
X128824000Y-91536000D01*
X130085000Y-90275000D02*
X129276000Y-91084000D01*
X119811394Y-110975000D02*
X132475000Y-98311394D01*
X128824000Y-91536000D02*
X128650000Y-91710000D01*
X129190702Y-91084000D02*
X128824000Y-91450702D01*
X118606801Y-110975000D02*
X119811394Y-110975000D01*
X129276000Y-91084000D02*
X129190702Y-91084000D01*
%TO.N,VBUS*%
X125449000Y-96051057D02*
X125800000Y-95700057D01*
X128300000Y-93720001D02*
X128300000Y-92460000D01*
X128300000Y-92460000D02*
X128250000Y-92410000D01*
X126204136Y-97304080D02*
X125449000Y-96548943D01*
X135050000Y-103600000D02*
X135050000Y-103950000D01*
X128850000Y-96950000D02*
X128850000Y-96600000D01*
X125449000Y-96548943D02*
X125449000Y-96051057D01*
X128850000Y-96600000D02*
X128300000Y-96050000D01*
X135050000Y-103950000D02*
X133250000Y-105750000D01*
X126204136Y-97904136D02*
X126204136Y-97304080D01*
X125800000Y-92460000D02*
X125850000Y-92410000D01*
X125800000Y-93720001D02*
X125800000Y-92460000D01*
X125800000Y-95700057D02*
X125800000Y-93720001D01*
X128300000Y-96050000D02*
X128300000Y-93720001D01*
%TO.N,CC*%
X128171599Y-97374000D02*
X128131140Y-97374000D01*
X127800000Y-97042860D02*
X127800000Y-93720000D01*
X128131140Y-97374000D02*
X127800000Y-97042860D01*
%TO.N,VCON*%
X134200000Y-90050000D02*
X132750000Y-88600000D01*
X137100000Y-98100000D02*
X134500000Y-98100000D01*
X134500000Y-98100000D02*
X134200000Y-97800000D01*
X136855923Y-107137294D02*
X139912706Y-107137294D01*
X139912706Y-107137294D02*
X142050000Y-105000000D01*
X127550000Y-88600000D02*
X126250000Y-89900000D01*
X142050000Y-103050000D02*
X137100000Y-98100000D01*
X126250000Y-89900000D02*
X126250000Y-91710000D01*
X132750000Y-88600000D02*
X127550000Y-88600000D01*
X142050000Y-105000000D02*
X142050000Y-103050000D01*
X134200000Y-97800000D02*
X134200000Y-90050000D01*
%TO.N,SBU1*%
X126300000Y-96050000D02*
X126300000Y-93720000D01*
X126050000Y-96300000D02*
X126300000Y-96050000D01*
%TO.N,SBU2*%
X133650000Y-90350000D02*
X132500000Y-89200000D01*
X136750000Y-98600000D02*
X133850000Y-98600000D01*
X137987294Y-106005923D02*
X138312294Y-106330923D01*
X133650000Y-98400000D02*
X133650000Y-90350000D01*
X129350000Y-89200000D02*
X127850000Y-90700000D01*
X133850000Y-98600000D02*
X133650000Y-98400000D01*
X132500000Y-89200000D02*
X129350000Y-89200000D01*
X139719077Y-106330923D02*
X141500000Y-104550000D01*
X141500000Y-104550000D02*
X141500000Y-103350000D01*
X127850000Y-90700000D02*
X127850000Y-91710000D01*
X138312294Y-106330923D02*
X139719077Y-106330923D01*
X141500000Y-103350000D02*
X136750000Y-98600000D01*
%TD*%
%TA.AperFunction,Conductor*%
%TO.N,GND*%
G36*
X135005703Y-93613963D02*
G01*
X135012181Y-93619995D01*
X148104505Y-106712319D01*
X148137990Y-106773642D01*
X148133006Y-106843334D01*
X148104505Y-106887681D01*
X138879005Y-116113181D01*
X138817682Y-116146666D01*
X138791324Y-116149500D01*
X115308676Y-116149500D01*
X115241637Y-116129815D01*
X115220995Y-116113181D01*
X113291683Y-114183869D01*
X114604592Y-114183869D01*
X114639178Y-114357739D01*
X114639180Y-114357745D01*
X114707024Y-114521536D01*
X114714116Y-114532147D01*
X115292654Y-113953611D01*
X115254594Y-114045497D01*
X115254594Y-114144953D01*
X115292654Y-114236839D01*
X115362980Y-114307165D01*
X115454866Y-114345225D01*
X115554322Y-114345225D01*
X115646208Y-114307165D01*
X115067669Y-114885701D01*
X115067669Y-114885702D01*
X115078278Y-114892792D01*
X115078283Y-114892794D01*
X115242073Y-114960638D01*
X115242079Y-114960640D01*
X115415949Y-114995226D01*
X115593238Y-114995226D01*
X115767108Y-114960640D01*
X115767114Y-114960638D01*
X115930901Y-114892796D01*
X116078309Y-114794301D01*
X116176345Y-114696265D01*
X115716727Y-114236647D01*
X115716726Y-114236647D01*
X116070280Y-113883093D01*
X116070280Y-113883094D01*
X116529898Y-114342712D01*
X116627937Y-114244673D01*
X116726424Y-114097277D01*
X116726429Y-114097268D01*
X116794271Y-113933481D01*
X116794273Y-113933475D01*
X116828859Y-113759605D01*
X137271140Y-113759605D01*
X137305726Y-113933475D01*
X137305728Y-113933481D01*
X137373570Y-114097268D01*
X137472064Y-114244674D01*
X137570100Y-114342711D01*
X138029720Y-113883093D01*
X138383274Y-114236647D01*
X137923654Y-114696265D01*
X138021690Y-114794302D01*
X138169089Y-114892791D01*
X138169098Y-114892796D01*
X138332885Y-114960638D01*
X138332891Y-114960640D01*
X138506761Y-114995226D01*
X138684050Y-114995226D01*
X138857921Y-114960640D01*
X138857927Y-114960638D01*
X139021718Y-114892794D01*
X139032330Y-114885702D01*
X138453793Y-114307165D01*
X138545678Y-114345225D01*
X138645134Y-114345225D01*
X138737020Y-114307165D01*
X138807346Y-114236839D01*
X138845406Y-114144953D01*
X138845406Y-114045497D01*
X138807346Y-113953611D01*
X139385883Y-114532148D01*
X139392975Y-114521537D01*
X139460819Y-114357746D01*
X139460821Y-114357740D01*
X139495407Y-114183869D01*
X139495407Y-114006580D01*
X139460821Y-113832710D01*
X139460819Y-113832704D01*
X139392977Y-113668917D01*
X139392972Y-113668908D01*
X139294483Y-113521509D01*
X139196446Y-113423473D01*
X138736828Y-113883092D01*
X138736828Y-113883093D01*
X138383274Y-113529539D01*
X138383275Y-113529539D01*
X138842893Y-113069919D01*
X138744855Y-112971883D01*
X138597449Y-112873389D01*
X138433662Y-112805547D01*
X138433656Y-112805545D01*
X138259786Y-112770960D01*
X138082498Y-112770960D01*
X137908627Y-112805545D01*
X137908621Y-112805547D01*
X137744833Y-112873390D01*
X137734218Y-112880482D01*
X137734218Y-112880483D01*
X138312756Y-113459021D01*
X138220870Y-113420961D01*
X138121414Y-113420961D01*
X138029528Y-113459021D01*
X137959202Y-113529347D01*
X137921142Y-113621233D01*
X137921142Y-113720689D01*
X137959202Y-113812575D01*
X137380664Y-113234037D01*
X137380663Y-113234037D01*
X137373571Y-113244652D01*
X137305728Y-113408440D01*
X137305726Y-113408446D01*
X137271141Y-113582316D01*
X137271141Y-113759605D01*
X137271140Y-113759605D01*
X116828859Y-113759605D01*
X116828859Y-113582316D01*
X116794273Y-113408445D01*
X116794271Y-113408439D01*
X116726428Y-113244651D01*
X116719335Y-113234036D01*
X116140798Y-113812573D01*
X116178858Y-113720689D01*
X116178858Y-113621233D01*
X116140798Y-113529347D01*
X116070472Y-113459021D01*
X115978586Y-113420961D01*
X115879130Y-113420961D01*
X115787245Y-113459020D01*
X116365781Y-112880482D01*
X116365781Y-112880481D01*
X116355170Y-112873391D01*
X116355168Y-112873390D01*
X116191379Y-112805547D01*
X116191373Y-112805545D01*
X116017502Y-112770960D01*
X115840214Y-112770960D01*
X115666343Y-112805545D01*
X115666337Y-112805547D01*
X115502550Y-112873389D01*
X115502541Y-112873394D01*
X115355144Y-112971882D01*
X115257106Y-113069919D01*
X115716726Y-113529539D01*
X115363172Y-113883093D01*
X114903552Y-113423473D01*
X114805520Y-113521506D01*
X114805516Y-113521511D01*
X114707022Y-113668917D01*
X114639180Y-113832704D01*
X114639178Y-113832710D01*
X114604593Y-114006580D01*
X114604593Y-114183869D01*
X114604592Y-114183869D01*
X113291683Y-114183869D01*
X106941864Y-107834050D01*
X108254773Y-107834050D01*
X108289359Y-108007920D01*
X108289361Y-108007926D01*
X108357205Y-108171717D01*
X108364297Y-108182328D01*
X108942835Y-107603792D01*
X108904775Y-107695678D01*
X108904775Y-107795134D01*
X108942835Y-107887020D01*
X109013161Y-107957346D01*
X109105047Y-107995406D01*
X109204503Y-107995406D01*
X109296389Y-107957346D01*
X108717850Y-108535882D01*
X108717850Y-108535883D01*
X108728459Y-108542973D01*
X108728464Y-108542975D01*
X108892254Y-108610819D01*
X108892260Y-108610821D01*
X109066130Y-108645407D01*
X109243419Y-108645407D01*
X109417289Y-108610821D01*
X109417295Y-108610819D01*
X109581082Y-108542977D01*
X109728490Y-108444482D01*
X109826526Y-108346446D01*
X109366908Y-107886828D01*
X109366907Y-107886828D01*
X109720461Y-107533274D01*
X109720461Y-107533275D01*
X110180079Y-107992893D01*
X110278118Y-107894854D01*
X110376605Y-107747458D01*
X110376610Y-107747449D01*
X110444452Y-107583662D01*
X110444454Y-107583656D01*
X110479040Y-107409786D01*
X110479040Y-107232497D01*
X110444454Y-107058626D01*
X110444452Y-107058620D01*
X110376609Y-106894832D01*
X110369516Y-106884217D01*
X109790979Y-107462754D01*
X109829039Y-107370870D01*
X109829039Y-107271414D01*
X109790979Y-107179528D01*
X109720653Y-107109202D01*
X109628767Y-107071142D01*
X109529311Y-107071142D01*
X109437426Y-107109201D01*
X110015962Y-106530663D01*
X110015962Y-106530662D01*
X110005351Y-106523572D01*
X110005349Y-106523571D01*
X109841560Y-106455728D01*
X109841554Y-106455726D01*
X109667683Y-106421141D01*
X109490395Y-106421141D01*
X109316524Y-106455726D01*
X109316518Y-106455728D01*
X109152731Y-106523570D01*
X109152722Y-106523575D01*
X109005325Y-106622063D01*
X108907287Y-106720100D01*
X109366907Y-107179720D01*
X109013353Y-107533274D01*
X108553733Y-107073654D01*
X108455701Y-107171687D01*
X108455697Y-107171692D01*
X108357203Y-107319098D01*
X108289361Y-107482885D01*
X108289359Y-107482891D01*
X108254774Y-107656761D01*
X108254774Y-107834050D01*
X108254773Y-107834050D01*
X106941864Y-107834050D01*
X105995495Y-106887681D01*
X105991156Y-106879735D01*
X105983909Y-106874310D01*
X105974674Y-106849550D01*
X105962010Y-106826358D01*
X105962655Y-106817328D01*
X105959492Y-106808846D01*
X105965108Y-106783025D01*
X105966994Y-106756666D01*
X105972812Y-106747612D01*
X105974344Y-106740573D01*
X105995495Y-106712319D01*
X106126758Y-106581056D01*
X108629187Y-104078627D01*
X111131933Y-101575880D01*
X111193254Y-101542397D01*
X111262946Y-101547381D01*
X111318879Y-101589253D01*
X111343296Y-101654717D01*
X111339387Y-101695656D01*
X111298978Y-101846464D01*
X111298978Y-102014567D01*
X111298979Y-102014580D01*
X111298979Y-104670755D01*
X111279294Y-104737794D01*
X111278081Y-104739646D01*
X111190088Y-104871335D01*
X111190081Y-104871348D01*
X111129743Y-105017019D01*
X111129740Y-105017031D01*
X111098979Y-105171674D01*
X111098979Y-105329367D01*
X111129740Y-105484010D01*
X111129743Y-105484022D01*
X111190081Y-105629693D01*
X111190088Y-105629706D01*
X111277689Y-105760809D01*
X111277692Y-105760813D01*
X111389186Y-105872307D01*
X111389190Y-105872310D01*
X111520293Y-105959911D01*
X111520306Y-105959918D01*
X111640198Y-106009578D01*
X111665982Y-106020258D01*
X111818023Y-106050501D01*
X111820632Y-106051020D01*
X111820635Y-106051021D01*
X111820637Y-106051021D01*
X111978323Y-106051021D01*
X111978324Y-106051020D01*
X112132976Y-106020258D01*
X112278658Y-105959915D01*
X112409768Y-105872310D01*
X112521268Y-105760810D01*
X112608873Y-105629700D01*
X112608874Y-105629697D01*
X112608876Y-105629694D01*
X112668540Y-105485649D01*
X112712380Y-105431245D01*
X112735645Y-105418541D01*
X112800611Y-105391632D01*
X112879694Y-105358876D01*
X112879697Y-105358874D01*
X112879700Y-105358873D01*
X113010810Y-105271268D01*
X113122310Y-105159768D01*
X113209915Y-105028658D01*
X113270258Y-104882976D01*
X113292288Y-104772224D01*
X113324671Y-104710316D01*
X113385387Y-104675742D01*
X113438096Y-104674801D01*
X113527975Y-104692680D01*
X113705263Y-104692680D01*
X113879133Y-104658094D01*
X113879139Y-104658092D01*
X113995648Y-104609833D01*
X114065117Y-104602364D01*
X114127597Y-104633639D01*
X114163249Y-104693728D01*
X114164718Y-104748585D01*
X114155835Y-104793242D01*
X114155835Y-104793247D01*
X114155835Y-104955857D01*
X114155835Y-104955859D01*
X114155834Y-104955859D01*
X114187557Y-105115335D01*
X114187560Y-105115345D01*
X114249785Y-105265571D01*
X114249787Y-105265575D01*
X114340123Y-105400772D01*
X114340129Y-105400780D01*
X114455106Y-105515757D01*
X114455114Y-105515763D01*
X114590309Y-105606097D01*
X114590310Y-105606097D01*
X114590314Y-105606100D01*
X114702076Y-105652393D01*
X114756476Y-105696231D01*
X114769181Y-105719500D01*
X114815471Y-105831257D01*
X114815473Y-105831261D01*
X114905809Y-105966458D01*
X114905815Y-105966466D01*
X115020792Y-106081443D01*
X115020800Y-106081449D01*
X115155997Y-106171785D01*
X115156001Y-106171787D01*
X115267757Y-106218077D01*
X115322161Y-106261917D01*
X115334866Y-106285185D01*
X115381158Y-106396946D01*
X115471494Y-106532143D01*
X115471500Y-106532151D01*
X115586477Y-106647128D01*
X115586485Y-106647134D01*
X115721682Y-106737470D01*
X115721686Y-106737472D01*
X115831662Y-106783025D01*
X115871917Y-106799699D01*
X115871921Y-106799699D01*
X115871922Y-106799700D01*
X116031398Y-106831423D01*
X116031401Y-106831423D01*
X116194012Y-106831423D01*
X116264870Y-106817328D01*
X116292323Y-106811867D01*
X116361914Y-106818094D01*
X116417092Y-106860956D01*
X116440337Y-106926846D01*
X116438132Y-106957675D01*
X116418577Y-107055984D01*
X116418577Y-107055989D01*
X116418577Y-107218599D01*
X116418577Y-107218601D01*
X116418576Y-107218601D01*
X116450299Y-107378077D01*
X116450302Y-107378087D01*
X116512527Y-107528313D01*
X116512529Y-107528317D01*
X116602865Y-107663514D01*
X116602871Y-107663522D01*
X116717848Y-107778499D01*
X116717856Y-107778505D01*
X116853053Y-107868841D01*
X116853057Y-107868843D01*
X116915857Y-107894855D01*
X116964810Y-107915132D01*
X116964813Y-107915133D01*
X117019217Y-107958973D01*
X117031922Y-107982241D01*
X117078214Y-108094002D01*
X117168550Y-108229199D01*
X117168556Y-108229207D01*
X117283533Y-108344184D01*
X117283541Y-108344190D01*
X117418736Y-108434524D01*
X117418737Y-108434524D01*
X117418741Y-108434527D01*
X117530503Y-108480820D01*
X117584903Y-108524658D01*
X117597608Y-108547927D01*
X117643898Y-108659684D01*
X117643900Y-108659688D01*
X117734236Y-108794885D01*
X117734242Y-108794893D01*
X117849219Y-108909870D01*
X117849227Y-108909876D01*
X117984424Y-109000212D01*
X117984428Y-109000214D01*
X118095278Y-109046129D01*
X118134659Y-109062441D01*
X118134663Y-109062441D01*
X118134664Y-109062442D01*
X118298344Y-109095001D01*
X118360255Y-109127386D01*
X118394829Y-109188102D01*
X118391089Y-109257871D01*
X118350222Y-109314543D01*
X118321605Y-109331179D01*
X118244413Y-109363152D01*
X118244404Y-109363157D01*
X118113301Y-109450758D01*
X118113297Y-109450761D01*
X118001803Y-109562255D01*
X118001800Y-109562259D01*
X117914199Y-109693362D01*
X117914194Y-109693371D01*
X117854528Y-109837420D01*
X117810687Y-109891823D01*
X117787420Y-109904528D01*
X117643371Y-109964194D01*
X117643362Y-109964199D01*
X117512259Y-110051800D01*
X117512255Y-110051803D01*
X117400761Y-110163297D01*
X117400758Y-110163301D01*
X117313157Y-110294404D01*
X117313150Y-110294417D01*
X117252812Y-110440088D01*
X117252809Y-110440100D01*
X117222048Y-110594743D01*
X117222048Y-110752436D01*
X117252809Y-110907079D01*
X117252812Y-110907091D01*
X117313150Y-111052762D01*
X117313157Y-111052775D01*
X117400758Y-111183878D01*
X117400761Y-111183882D01*
X117512255Y-111295376D01*
X117512259Y-111295379D01*
X117643362Y-111382980D01*
X117643375Y-111382987D01*
X117789046Y-111443325D01*
X117789051Y-111443327D01*
X117893227Y-111464049D01*
X117943701Y-111474089D01*
X117943704Y-111474090D01*
X117943706Y-111474090D01*
X118101391Y-111474090D01*
X118129823Y-111468434D01*
X118181205Y-111458213D01*
X118207876Y-111460599D01*
X118234630Y-111459325D01*
X118246431Y-111464049D01*
X118250796Y-111464440D01*
X118267393Y-111472440D01*
X118270250Y-111474090D01*
X118324896Y-111505639D01*
X118324898Y-111505641D01*
X118362952Y-111527611D01*
X118375016Y-111534577D01*
X118527744Y-111575500D01*
X119724725Y-111575500D01*
X119724741Y-111575501D01*
X119732337Y-111575501D01*
X119890448Y-111575501D01*
X119890451Y-111575501D01*
X120043179Y-111534577D01*
X120093298Y-111505639D01*
X120180110Y-111455520D01*
X120291914Y-111343716D01*
X120291914Y-111343714D01*
X120302122Y-111333507D01*
X120302124Y-111333504D01*
X125964475Y-105671153D01*
X132449500Y-105671153D01*
X132449500Y-105828846D01*
X132480261Y-105983489D01*
X132480264Y-105983501D01*
X132540602Y-106129172D01*
X132540609Y-106129185D01*
X132628210Y-106260288D01*
X132628213Y-106260292D01*
X132739707Y-106371786D01*
X132739711Y-106371789D01*
X132870814Y-106459390D01*
X132870827Y-106459397D01*
X133016498Y-106519735D01*
X133016503Y-106519737D01*
X133171153Y-106550499D01*
X133171156Y-106550500D01*
X133171158Y-106550500D01*
X133328844Y-106550500D01*
X133328845Y-106550499D01*
X133483497Y-106519737D01*
X133629179Y-106459394D01*
X133760289Y-106371789D01*
X133871789Y-106260289D01*
X133959394Y-106129179D01*
X133963740Y-106118688D01*
X133979164Y-106081449D01*
X134019737Y-105983497D01*
X134050019Y-105831261D01*
X134050638Y-105828150D01*
X134083023Y-105766239D01*
X134084519Y-105764714D01*
X135408506Y-104440727D01*
X135408511Y-104440724D01*
X135418714Y-104430520D01*
X135418716Y-104430520D01*
X135530520Y-104318716D01*
X135609577Y-104181784D01*
X135609577Y-104181782D01*
X135613641Y-104174744D01*
X135615379Y-104175747D01*
X135633584Y-104148493D01*
X135639075Y-104143002D01*
X135671789Y-104110289D01*
X135759394Y-103979179D01*
X135819737Y-103833497D01*
X135850500Y-103678842D01*
X135850500Y-103521158D01*
X135850500Y-103521155D01*
X135850499Y-103521153D01*
X135844591Y-103491451D01*
X135819737Y-103366503D01*
X135799931Y-103318687D01*
X135759397Y-103220827D01*
X135759390Y-103220814D01*
X135671789Y-103089711D01*
X135671786Y-103089707D01*
X135560292Y-102978213D01*
X135560288Y-102978210D01*
X135429185Y-102890609D01*
X135429172Y-102890602D01*
X135283501Y-102830264D01*
X135283489Y-102830261D01*
X135128845Y-102799500D01*
X135128842Y-102799500D01*
X134971158Y-102799500D01*
X134971155Y-102799500D01*
X134816510Y-102830261D01*
X134816498Y-102830264D01*
X134670827Y-102890602D01*
X134670814Y-102890609D01*
X134539711Y-102978210D01*
X134539707Y-102978213D01*
X134428213Y-103089707D01*
X134428210Y-103089711D01*
X134340609Y-103220814D01*
X134340602Y-103220827D01*
X134280264Y-103366498D01*
X134280261Y-103366510D01*
X134249500Y-103521153D01*
X134249500Y-103678846D01*
X134273471Y-103799356D01*
X134267244Y-103868947D01*
X134239535Y-103911228D01*
X133235339Y-104915425D01*
X133174016Y-104948910D01*
X133171850Y-104949361D01*
X133016508Y-104980261D01*
X133016498Y-104980264D01*
X132870827Y-105040602D01*
X132870814Y-105040609D01*
X132739711Y-105128210D01*
X132739707Y-105128213D01*
X132628213Y-105239707D01*
X132628210Y-105239711D01*
X132540609Y-105370814D01*
X132540602Y-105370827D01*
X132480264Y-105516498D01*
X132480261Y-105516510D01*
X132449500Y-105671153D01*
X125964475Y-105671153D01*
X132843713Y-98791915D01*
X132843716Y-98791914D01*
X132944467Y-98691162D01*
X133005786Y-98657680D01*
X133005788Y-98657680D01*
X133015756Y-98658393D01*
X133075478Y-98662664D01*
X133075479Y-98662664D01*
X133075480Y-98662665D01*
X133101891Y-98682436D01*
X133131412Y-98704535D01*
X133139532Y-98716845D01*
X133169479Y-98768715D01*
X133298720Y-98897956D01*
X133298725Y-98897960D01*
X133481284Y-99080520D01*
X133481286Y-99080521D01*
X133481290Y-99080524D01*
X133567570Y-99130337D01*
X133618216Y-99159577D01*
X133770943Y-99200501D01*
X133770945Y-99200501D01*
X133936654Y-99200501D01*
X133936670Y-99200500D01*
X136449903Y-99200500D01*
X136516942Y-99220185D01*
X136537584Y-99236819D01*
X139670441Y-102369676D01*
X139703926Y-102430999D01*
X139698942Y-102500691D01*
X139657070Y-102556624D01*
X139650304Y-102561347D01*
X139532093Y-102638128D01*
X139499317Y-102647924D01*
X139466762Y-102658118D01*
X139465954Y-102657896D01*
X139465149Y-102658137D01*
X139432275Y-102648656D01*
X139399382Y-102639633D01*
X139398463Y-102638906D01*
X139398015Y-102638777D01*
X139397373Y-102638043D01*
X139376868Y-102621819D01*
X139365966Y-102610917D01*
X139365964Y-102610915D01*
X139288169Y-102566000D01*
X139234735Y-102535149D01*
X139161549Y-102515539D01*
X139088365Y-102495930D01*
X138936833Y-102495930D01*
X138790462Y-102535149D01*
X138659234Y-102610915D01*
X138659231Y-102610917D01*
X138552086Y-102718062D01*
X138552084Y-102718065D01*
X138476318Y-102849293D01*
X138447898Y-102955361D01*
X138437099Y-102995664D01*
X138437099Y-103147196D01*
X138447898Y-103187499D01*
X138475685Y-103291203D01*
X138474022Y-103361053D01*
X138434859Y-103418915D01*
X138424802Y-103426397D01*
X138380628Y-103455913D01*
X138380622Y-103455918D01*
X138265716Y-103570824D01*
X138265713Y-103570828D01*
X138175425Y-103705953D01*
X138117112Y-103846734D01*
X138117112Y-103846735D01*
X138819511Y-103846735D01*
X138886550Y-103866420D01*
X138912818Y-103896735D01*
X138866751Y-103896735D01*
X138793242Y-103927183D01*
X138736981Y-103983444D01*
X138706533Y-104056953D01*
X138706533Y-104136517D01*
X138713213Y-104152644D01*
X138592444Y-104233340D01*
X138592442Y-104233341D01*
X138571084Y-104254700D01*
X138515366Y-104310417D01*
X138454046Y-104343901D01*
X138427687Y-104346735D01*
X138117112Y-104346735D01*
X138099613Y-104372924D01*
X138046001Y-104417729D01*
X137976676Y-104426436D01*
X137972320Y-104425650D01*
X137856470Y-104402606D01*
X137856467Y-104402606D01*
X137693857Y-104402606D01*
X137693855Y-104402606D01*
X137534378Y-104434328D01*
X137534368Y-104434331D01*
X137384142Y-104496556D01*
X137384138Y-104496558D01*
X137248941Y-104586894D01*
X137248933Y-104586900D01*
X137133956Y-104701877D01*
X137133950Y-104701885D01*
X137043614Y-104837082D01*
X137043614Y-104837083D01*
X136997322Y-104948843D01*
X136953481Y-105003246D01*
X136930214Y-105015951D01*
X136818454Y-105062243D01*
X136818453Y-105062243D01*
X136683256Y-105152579D01*
X136683248Y-105152585D01*
X136568271Y-105267562D01*
X136568265Y-105267570D01*
X136477929Y-105402767D01*
X136431637Y-105514529D01*
X136387796Y-105568932D01*
X136364529Y-105581637D01*
X136252767Y-105627929D01*
X136117570Y-105718265D01*
X136117562Y-105718271D01*
X136002585Y-105833248D01*
X136002579Y-105833256D01*
X135912243Y-105968453D01*
X135912243Y-105968454D01*
X135865951Y-106080214D01*
X135822110Y-106134617D01*
X135798843Y-106147322D01*
X135687083Y-106193614D01*
X135687082Y-106193614D01*
X135551885Y-106283950D01*
X135551877Y-106283956D01*
X135436900Y-106398933D01*
X135436894Y-106398941D01*
X135346558Y-106534138D01*
X135346556Y-106534142D01*
X135284331Y-106684368D01*
X135284328Y-106684378D01*
X135252606Y-106843854D01*
X135252606Y-107006471D01*
X135275650Y-107122320D01*
X135269423Y-107191911D01*
X135226560Y-107247089D01*
X135222924Y-107249613D01*
X135196735Y-107267112D01*
X135196735Y-107577686D01*
X135177050Y-107644725D01*
X135160416Y-107665367D01*
X135083346Y-107742436D01*
X135083340Y-107742444D01*
X135002644Y-107863213D01*
X134986517Y-107856533D01*
X134906953Y-107856533D01*
X134833444Y-107886981D01*
X134777183Y-107943242D01*
X134746735Y-108016751D01*
X134746735Y-108064631D01*
X134709851Y-108025016D01*
X134696735Y-107969511D01*
X134696735Y-107267112D01*
X134696734Y-107267112D01*
X134555953Y-107325425D01*
X134420828Y-107415713D01*
X134352825Y-107483716D01*
X134291501Y-107517200D01*
X134233051Y-107515809D01*
X134153548Y-107494507D01*
X134103263Y-107481033D01*
X133951730Y-107481033D01*
X133805359Y-107520252D01*
X133674131Y-107596018D01*
X133674128Y-107596020D01*
X133354851Y-107915297D01*
X133354849Y-107915300D01*
X133279083Y-108046528D01*
X133246047Y-108169824D01*
X133239864Y-108192899D01*
X133239864Y-108344431D01*
X133250663Y-108384734D01*
X133279083Y-108490801D01*
X133312065Y-108547927D01*
X133354849Y-108622030D01*
X133354851Y-108622032D01*
X133390018Y-108657199D01*
X133423503Y-108718522D01*
X133418519Y-108788214D01*
X133416898Y-108792332D01*
X133353002Y-108946592D01*
X133352999Y-108946602D01*
X133318414Y-109120472D01*
X133318414Y-109297761D01*
X133318413Y-109297761D01*
X133352999Y-109471631D01*
X133353001Y-109471637D01*
X133420843Y-109635424D01*
X133519337Y-109782830D01*
X133617373Y-109880867D01*
X134076992Y-109421248D01*
X134430547Y-109774803D01*
X133970927Y-110234421D01*
X134068963Y-110332458D01*
X134216362Y-110430947D01*
X134216371Y-110430952D01*
X134380158Y-110498794D01*
X134380164Y-110498796D01*
X134554034Y-110533382D01*
X134731323Y-110533382D01*
X134905194Y-110498796D01*
X134905200Y-110498794D01*
X135068991Y-110430950D01*
X135079603Y-110423858D01*
X134501066Y-109845321D01*
X134592951Y-109883381D01*
X134692407Y-109883381D01*
X134784293Y-109845321D01*
X134854619Y-109774995D01*
X134892679Y-109683109D01*
X134892679Y-109583653D01*
X134854619Y-109491767D01*
X135433156Y-110070304D01*
X135440248Y-110059693D01*
X135508092Y-109895902D01*
X135508094Y-109895896D01*
X135542680Y-109722025D01*
X135542680Y-109544736D01*
X135508094Y-109370866D01*
X135508092Y-109370860D01*
X135459833Y-109254351D01*
X135452364Y-109184881D01*
X135483639Y-109122402D01*
X135543728Y-109086750D01*
X135598585Y-109085281D01*
X135628132Y-109091158D01*
X135643246Y-109094165D01*
X135643247Y-109094165D01*
X135805859Y-109094165D01*
X135939893Y-109067503D01*
X135965341Y-109062441D01*
X136115573Y-109000213D01*
X136115575Y-109000212D01*
X136195823Y-108946592D01*
X136250777Y-108909873D01*
X136365760Y-108794890D01*
X136456100Y-108659686D01*
X136502393Y-108547923D01*
X136546231Y-108493524D01*
X136569489Y-108480823D01*
X136681259Y-108434527D01*
X136816463Y-108344187D01*
X136931446Y-108229204D01*
X137021786Y-108094000D01*
X137068079Y-107982237D01*
X137111917Y-107927838D01*
X137135174Y-107915138D01*
X137246944Y-107868842D01*
X137382148Y-107778502D01*
X137382151Y-107778499D01*
X137386538Y-107774113D01*
X137447861Y-107740628D01*
X137474219Y-107737794D01*
X139826037Y-107737794D01*
X139826053Y-107737795D01*
X139833649Y-107737795D01*
X139991760Y-107737795D01*
X139991763Y-107737795D01*
X140144491Y-107696871D01*
X140202258Y-107663519D01*
X140281422Y-107617814D01*
X140393226Y-107506010D01*
X140393226Y-107506008D01*
X140403430Y-107495805D01*
X140403434Y-107495800D01*
X140489448Y-107409786D01*
X143620959Y-107409786D01*
X143655545Y-107583656D01*
X143655547Y-107583662D01*
X143723389Y-107747449D01*
X143821883Y-107894855D01*
X143919919Y-107992892D01*
X144379539Y-107533274D01*
X144733093Y-107886828D01*
X144273473Y-108346446D01*
X144371509Y-108444483D01*
X144518908Y-108542972D01*
X144518917Y-108542977D01*
X144682704Y-108610819D01*
X144682710Y-108610821D01*
X144856580Y-108645407D01*
X145033869Y-108645407D01*
X145207740Y-108610821D01*
X145207746Y-108610819D01*
X145371537Y-108542975D01*
X145382149Y-108535883D01*
X144803612Y-107957346D01*
X144895497Y-107995406D01*
X144994953Y-107995406D01*
X145086839Y-107957346D01*
X145157165Y-107887020D01*
X145195225Y-107795134D01*
X145195225Y-107695678D01*
X145157165Y-107603792D01*
X145735702Y-108182329D01*
X145742794Y-108171718D01*
X145810638Y-108007927D01*
X145810640Y-108007921D01*
X145845226Y-107834050D01*
X145845226Y-107656761D01*
X145810640Y-107482891D01*
X145810638Y-107482885D01*
X145742796Y-107319098D01*
X145742791Y-107319089D01*
X145644302Y-107171690D01*
X145546265Y-107073654D01*
X145086647Y-107533273D01*
X145086647Y-107533274D01*
X144733093Y-107179720D01*
X144733094Y-107179720D01*
X145192712Y-106720100D01*
X145094674Y-106622064D01*
X144947268Y-106523570D01*
X144783481Y-106455728D01*
X144783475Y-106455726D01*
X144609605Y-106421141D01*
X144432317Y-106421141D01*
X144258446Y-106455726D01*
X144258440Y-106455728D01*
X144094652Y-106523571D01*
X144084037Y-106530663D01*
X144084037Y-106530664D01*
X144662575Y-107109202D01*
X144570689Y-107071142D01*
X144471233Y-107071142D01*
X144379347Y-107109202D01*
X144309021Y-107179528D01*
X144270961Y-107271414D01*
X144270961Y-107370870D01*
X144309021Y-107462756D01*
X143730483Y-106884218D01*
X143730482Y-106884218D01*
X143723390Y-106894833D01*
X143655547Y-107058621D01*
X143655545Y-107058627D01*
X143620960Y-107232497D01*
X143620960Y-107409786D01*
X143620959Y-107409786D01*
X140489448Y-107409786D01*
X142408506Y-105490728D01*
X142408511Y-105490724D01*
X142418714Y-105480520D01*
X142418716Y-105480520D01*
X142530520Y-105368716D01*
X142587039Y-105270821D01*
X142609577Y-105231785D01*
X142650500Y-105079057D01*
X142650500Y-104920943D01*
X142650500Y-104920942D01*
X142650500Y-102970943D01*
X142640086Y-102932077D01*
X142609577Y-102818215D01*
X142578385Y-102764190D01*
X142578385Y-102764188D01*
X142530524Y-102681290D01*
X142530521Y-102681286D01*
X142530520Y-102681284D01*
X142418716Y-102569480D01*
X142418715Y-102569479D01*
X142414385Y-102565149D01*
X142414374Y-102565139D01*
X137587590Y-97738355D01*
X137587588Y-97738352D01*
X137468717Y-97619481D01*
X137468712Y-97619477D01*
X137372178Y-97563744D01*
X137372177Y-97563743D01*
X137331790Y-97540425D01*
X137331789Y-97540424D01*
X137319263Y-97537067D01*
X137179057Y-97499499D01*
X137020943Y-97499499D01*
X137013347Y-97499499D01*
X137013331Y-97499500D01*
X134924500Y-97499500D01*
X134857461Y-97479815D01*
X134811706Y-97427011D01*
X134800500Y-97375500D01*
X134800500Y-93707676D01*
X134820185Y-93640637D01*
X134872989Y-93594882D01*
X134942147Y-93584938D01*
X135005703Y-93613963D01*
G37*
%TD.AperFunction*%
%TA.AperFunction,Conductor*%
G36*
X119342538Y-108461176D02*
G01*
X119390149Y-108512313D01*
X119403265Y-108567818D01*
X119403265Y-108801507D01*
X119669453Y-109067695D01*
X119315899Y-109421249D01*
X118940779Y-109046129D01*
X118907294Y-108984806D01*
X118912278Y-108915114D01*
X118940777Y-108870768D01*
X119016656Y-108794890D01*
X119106996Y-108659686D01*
X119164704Y-108520365D01*
X119208544Y-108465962D01*
X119274839Y-108443897D01*
X119342538Y-108461176D01*
G37*
%TD.AperFunction*%
%TA.AperFunction,Conductor*%
G36*
X134901938Y-108474105D02*
G01*
X134935296Y-108520366D01*
X134993002Y-108659684D01*
X134993004Y-108659688D01*
X135083340Y-108794885D01*
X135083346Y-108794893D01*
X135159220Y-108870767D01*
X135192705Y-108932090D01*
X135187721Y-109001782D01*
X135159220Y-109046129D01*
X134784101Y-109421248D01*
X134784101Y-109421249D01*
X134430546Y-109067694D01*
X134696734Y-108801507D01*
X134696735Y-108801506D01*
X134696735Y-108567818D01*
X134716420Y-108500779D01*
X134769224Y-108455024D01*
X134838382Y-108445080D01*
X134901938Y-108474105D01*
G37*
%TD.AperFunction*%
%TA.AperFunction,Conductor*%
G36*
X122452969Y-92896465D02*
G01*
X122453590Y-92896354D01*
X122487786Y-92905089D01*
X122647974Y-92971476D01*
X122673985Y-92992445D01*
X122702356Y-93015307D01*
X122702360Y-93015320D01*
X122702369Y-93015327D01*
X122712862Y-93046872D01*
X122724421Y-93081601D01*
X122724417Y-93081612D01*
X122724422Y-93081625D01*
X122724500Y-93086028D01*
X122724500Y-93135765D01*
X122763719Y-93282136D01*
X122781485Y-93312907D01*
X122839485Y-93413365D01*
X122946635Y-93520515D01*
X123077865Y-93596281D01*
X123224234Y-93635500D01*
X123224236Y-93635500D01*
X123579828Y-93635500D01*
X123675766Y-93635500D01*
X123822135Y-93596281D01*
X123838881Y-93586612D01*
X123854368Y-93582462D01*
X123865945Y-93575023D01*
X123900880Y-93570000D01*
X124025500Y-93570000D01*
X124092539Y-93589685D01*
X124138294Y-93642489D01*
X124149500Y-93693998D01*
X124149501Y-93745998D01*
X124129818Y-93813037D01*
X124077015Y-93858793D01*
X124025501Y-93870000D01*
X123747783Y-93870000D01*
X123650000Y-93878390D01*
X123650000Y-94117844D01*
X123656401Y-94177372D01*
X123656403Y-94177379D01*
X123706645Y-94312086D01*
X123706649Y-94312093D01*
X123792809Y-94427187D01*
X123792812Y-94427190D01*
X123907906Y-94513350D01*
X123907915Y-94513355D01*
X124003534Y-94549018D01*
X124059468Y-94590888D01*
X124083886Y-94656353D01*
X124069035Y-94724626D01*
X124047883Y-94752881D01*
X123785339Y-95015425D01*
X123724016Y-95048910D01*
X123721850Y-95049361D01*
X123566508Y-95080261D01*
X123566498Y-95080264D01*
X123420827Y-95140602D01*
X123420814Y-95140609D01*
X123289711Y-95228210D01*
X123289707Y-95228213D01*
X123178213Y-95339707D01*
X123178210Y-95339711D01*
X123090609Y-95470814D01*
X123090602Y-95470827D01*
X123030264Y-95616498D01*
X123030261Y-95616510D01*
X122999500Y-95771153D01*
X122999500Y-95928846D01*
X123030261Y-96083489D01*
X123030264Y-96083501D01*
X123090602Y-96229172D01*
X123090609Y-96229185D01*
X123178210Y-96360288D01*
X123178213Y-96360292D01*
X123289707Y-96471786D01*
X123289711Y-96471789D01*
X123420814Y-96559390D01*
X123420827Y-96559397D01*
X123566498Y-96619735D01*
X123566503Y-96619737D01*
X123715744Y-96649423D01*
X123721153Y-96650499D01*
X123721156Y-96650500D01*
X123721158Y-96650500D01*
X123878844Y-96650500D01*
X123878845Y-96650499D01*
X124033497Y-96619737D01*
X124098033Y-96593005D01*
X124177548Y-96560070D01*
X124247017Y-96552601D01*
X124272452Y-96560070D01*
X124416498Y-96619735D01*
X124416503Y-96619737D01*
X124565744Y-96649423D01*
X124571153Y-96650499D01*
X124571156Y-96650500D01*
X124571158Y-96650500D01*
X124728840Y-96650500D01*
X124728842Y-96650500D01*
X124734255Y-96649423D01*
X124803845Y-96655646D01*
X124859025Y-96698506D01*
X124878226Y-96738943D01*
X124889422Y-96780724D01*
X124889426Y-96780733D01*
X124968475Y-96917652D01*
X124968481Y-96917660D01*
X125459890Y-97409069D01*
X125493375Y-97470392D01*
X125488391Y-97540084D01*
X125486770Y-97544202D01*
X125434400Y-97670634D01*
X125434397Y-97670646D01*
X125403636Y-97825289D01*
X125403636Y-97982982D01*
X125425374Y-98092268D01*
X125423592Y-98112179D01*
X125426790Y-98131913D01*
X125420542Y-98146265D01*
X125419147Y-98161860D01*
X125406881Y-98177648D01*
X125398904Y-98195976D01*
X125378190Y-98214581D01*
X125376283Y-98217037D01*
X125372647Y-98219561D01*
X125323760Y-98252226D01*
X125316880Y-98256505D01*
X125310493Y-98260192D01*
X125310490Y-98260195D01*
X125117846Y-98452837D01*
X125117807Y-98452875D01*
X125112745Y-98457931D01*
X125112697Y-98457962D01*
X125099506Y-98471159D01*
X125098775Y-98471890D01*
X125098739Y-98471909D01*
X125020627Y-98550057D01*
X125020611Y-98550072D01*
X125005362Y-98565322D01*
X125001821Y-98571454D01*
X124997558Y-98578310D01*
X124924426Y-98687808D01*
X124924425Y-98687810D01*
X124866887Y-98826781D01*
X124866885Y-98826785D01*
X124837554Y-98974321D01*
X124837554Y-98974325D01*
X124837559Y-99124741D01*
X124838111Y-99130337D01*
X124825093Y-99198983D01*
X124802389Y-99230174D01*
X123634817Y-100397748D01*
X123634815Y-100397750D01*
X121579692Y-102452872D01*
X121518369Y-102486357D01*
X121467820Y-102486808D01*
X121403325Y-102473979D01*
X121403321Y-102473979D01*
X121245637Y-102473979D01*
X121245634Y-102473979D01*
X121090989Y-102504740D01*
X121090977Y-102504743D01*
X120945306Y-102565081D01*
X120945293Y-102565088D01*
X120814190Y-102652689D01*
X120814186Y-102652692D01*
X120702692Y-102764186D01*
X120702691Y-102764188D01*
X120615088Y-102895293D01*
X120615081Y-102895306D01*
X120554743Y-103040977D01*
X120554740Y-103040989D01*
X120523979Y-103195632D01*
X120523979Y-103353325D01*
X120554740Y-103507968D01*
X120554743Y-103507980D01*
X120615081Y-103653651D01*
X120615088Y-103653664D01*
X120702689Y-103784767D01*
X120702692Y-103784771D01*
X120814186Y-103896265D01*
X120814190Y-103896268D01*
X120945293Y-103983869D01*
X120950670Y-103986743D01*
X120949737Y-103988488D01*
X120997051Y-104026594D01*
X121019135Y-104092882D01*
X121001874Y-104160587D01*
X120982897Y-104185024D01*
X120878210Y-104289711D01*
X120790609Y-104420814D01*
X120790602Y-104420827D01*
X120730264Y-104566498D01*
X120730261Y-104566510D01*
X120699500Y-104721153D01*
X120699500Y-104878846D01*
X120730261Y-105033489D01*
X120730264Y-105033501D01*
X120789930Y-105177548D01*
X120797399Y-105247017D01*
X120789930Y-105272452D01*
X120730264Y-105416498D01*
X120730261Y-105416510D01*
X120699500Y-105571153D01*
X120699500Y-105728846D01*
X120730261Y-105883489D01*
X120730264Y-105883501D01*
X120790602Y-106029172D01*
X120790609Y-106029185D01*
X120878210Y-106160288D01*
X120878213Y-106160292D01*
X120989707Y-106271786D01*
X120989711Y-106271789D01*
X121120814Y-106359390D01*
X121120827Y-106359397D01*
X121217641Y-106399498D01*
X121266503Y-106419737D01*
X121421153Y-106450499D01*
X121421156Y-106450500D01*
X121421158Y-106450500D01*
X121578844Y-106450500D01*
X121578845Y-106450499D01*
X121733497Y-106419737D01*
X121879179Y-106359394D01*
X122010289Y-106271789D01*
X122121789Y-106160289D01*
X122158324Y-106105609D01*
X122211935Y-106060806D01*
X122261426Y-106050501D01*
X122449462Y-106050501D01*
X122706528Y-106050501D01*
X122706544Y-106050502D01*
X122714140Y-106050502D01*
X122872251Y-106050502D01*
X122872254Y-106050502D01*
X122941620Y-106031915D01*
X123011467Y-106033578D01*
X123069329Y-106072740D01*
X123096834Y-106136968D01*
X123085248Y-106205870D01*
X123061392Y-106239371D01*
X120965623Y-108335139D01*
X120904300Y-108368624D01*
X120834608Y-108363640D01*
X120778675Y-108321768D01*
X120754258Y-108256304D01*
X120754554Y-108246492D01*
X120754070Y-108246492D01*
X120754070Y-108086835D01*
X120754070Y-108086833D01*
X120714851Y-107940464D01*
X120639085Y-107809234D01*
X120531935Y-107702084D01*
X120432587Y-107644725D01*
X120400706Y-107626318D01*
X120316636Y-107603792D01*
X120254336Y-107587099D01*
X120102804Y-107587099D01*
X119958796Y-107625685D01*
X119888946Y-107624022D01*
X119831084Y-107584859D01*
X119823601Y-107574801D01*
X119794084Y-107530625D01*
X119679175Y-107415716D01*
X119679171Y-107415713D01*
X119544046Y-107325425D01*
X119403265Y-107267112D01*
X119403265Y-107969511D01*
X119383580Y-108036550D01*
X119353265Y-108062818D01*
X119353265Y-108016751D01*
X119322817Y-107943242D01*
X119266556Y-107886981D01*
X119193047Y-107856533D01*
X119113483Y-107856533D01*
X119097354Y-107863213D01*
X119016659Y-107742444D01*
X119016653Y-107742436D01*
X118939584Y-107665367D01*
X118906099Y-107604044D01*
X118903265Y-107577686D01*
X118903265Y-107267111D01*
X118877076Y-107249613D01*
X118832270Y-107196001D01*
X118823563Y-107126676D01*
X118824349Y-107122319D01*
X118847394Y-107006469D01*
X118847394Y-106843854D01*
X118815671Y-106684378D01*
X118815670Y-106684377D01*
X118815670Y-106684373D01*
X118789861Y-106622064D01*
X118753443Y-106534142D01*
X118753441Y-106534138D01*
X118663105Y-106398941D01*
X118663099Y-106398933D01*
X118548122Y-106283956D01*
X118548114Y-106283950D01*
X118412917Y-106193614D01*
X118301156Y-106147322D01*
X118246753Y-106103481D01*
X118234048Y-106080213D01*
X118187758Y-105968457D01*
X118187756Y-105968453D01*
X118097420Y-105833256D01*
X118097414Y-105833248D01*
X117982437Y-105718271D01*
X117982429Y-105718265D01*
X117847232Y-105627929D01*
X117847228Y-105627927D01*
X117735471Y-105581637D01*
X117681067Y-105537797D01*
X117668367Y-105514539D01*
X117622071Y-105402770D01*
X117620741Y-105400780D01*
X117531734Y-105267570D01*
X117531728Y-105267562D01*
X117416751Y-105152585D01*
X117416743Y-105152579D01*
X117281546Y-105062243D01*
X117169785Y-105015951D01*
X117115382Y-104972110D01*
X117102677Y-104948842D01*
X117056387Y-104837086D01*
X117056385Y-104837082D01*
X116966049Y-104701885D01*
X116966043Y-104701877D01*
X116851066Y-104586900D01*
X116851058Y-104586894D01*
X116715861Y-104496558D01*
X116715857Y-104496556D01*
X116565631Y-104434331D01*
X116565621Y-104434328D01*
X116406145Y-104402606D01*
X116406143Y-104402606D01*
X116243533Y-104402606D01*
X116243528Y-104402606D01*
X116127679Y-104425650D01*
X116058088Y-104419423D01*
X116002910Y-104376560D01*
X116000385Y-104372923D01*
X115982887Y-104346735D01*
X115672313Y-104346735D01*
X115605274Y-104327050D01*
X115584636Y-104310420D01*
X115507560Y-104233344D01*
X115507559Y-104233343D01*
X115507557Y-104233341D01*
X115507555Y-104233340D01*
X115386786Y-104152644D01*
X115393467Y-104136517D01*
X115393467Y-104056953D01*
X115363019Y-103983444D01*
X115306758Y-103927183D01*
X115233249Y-103896735D01*
X115185368Y-103896735D01*
X115224984Y-103859851D01*
X115280489Y-103846735D01*
X115982888Y-103846735D01*
X115982887Y-103846734D01*
X115924574Y-103705953D01*
X115834286Y-103570828D01*
X115834283Y-103570824D01*
X115766284Y-103502825D01*
X115732799Y-103441502D01*
X115734189Y-103383053D01*
X115768967Y-103253263D01*
X115768967Y-103101730D01*
X115729748Y-102955361D01*
X115653982Y-102824131D01*
X115334700Y-102504849D01*
X115244674Y-102452872D01*
X115203471Y-102429083D01*
X115130285Y-102409473D01*
X115057101Y-102389864D01*
X114905569Y-102389864D01*
X114759198Y-102429083D01*
X114627970Y-102504849D01*
X114627966Y-102504852D01*
X114592799Y-102540019D01*
X114575255Y-102549598D01*
X114560624Y-102563221D01*
X114545217Y-102566000D01*
X114531476Y-102573504D01*
X114511537Y-102572077D01*
X114491864Y-102575627D01*
X114464881Y-102568739D01*
X114461784Y-102568518D01*
X114457667Y-102566898D01*
X114355482Y-102524572D01*
X114301078Y-102480731D01*
X114279013Y-102414437D01*
X114288373Y-102362559D01*
X114331775Y-102257793D01*
X114348908Y-102171674D01*
X114381293Y-102109769D01*
X114442009Y-102075196D01*
X114446261Y-102074270D01*
X114532425Y-102057132D01*
X114685386Y-101993774D01*
X114823047Y-101901793D01*
X114825682Y-101899157D01*
X114825687Y-101899155D01*
X114909477Y-101815362D01*
X114909500Y-101815350D01*
X114914924Y-101809924D01*
X114914929Y-101809922D01*
X114930142Y-101794705D01*
X114930233Y-101794655D01*
X114966501Y-101758379D01*
X114966502Y-101758380D01*
X115025031Y-101699840D01*
X115116999Y-101562173D01*
X115180343Y-101409210D01*
X115212631Y-101246828D01*
X115212620Y-101081268D01*
X115180313Y-100918890D01*
X115116949Y-100765935D01*
X115024965Y-100628280D01*
X114980861Y-100584178D01*
X114941336Y-100544653D01*
X114907851Y-100483330D01*
X114912835Y-100413638D01*
X114941334Y-100369293D01*
X122183506Y-93127122D01*
X122183511Y-93127118D01*
X122193714Y-93116914D01*
X122193716Y-93116914D01*
X122305520Y-93005110D01*
X122332927Y-92957639D01*
X122333489Y-92957103D01*
X122333682Y-92956348D01*
X122358696Y-92933067D01*
X122383489Y-92909427D01*
X122384256Y-92909279D01*
X122384828Y-92908747D01*
X122418486Y-92902680D01*
X122452096Y-92896202D01*
X122452969Y-92896465D01*
G37*
%TD.AperFunction*%
%TA.AperFunction,Conductor*%
G36*
X114448493Y-103846735D02*
G01*
X114682181Y-103846735D01*
X114749220Y-103866420D01*
X114794975Y-103919224D01*
X114804919Y-103988382D01*
X114775894Y-104051938D01*
X114729633Y-104085296D01*
X114590315Y-104143002D01*
X114590311Y-104143004D01*
X114455114Y-104233340D01*
X114455111Y-104233342D01*
X114379232Y-104309221D01*
X114317908Y-104342705D01*
X114248217Y-104337720D01*
X114203870Y-104309220D01*
X113828751Y-103934101D01*
X114182305Y-103580547D01*
X114448493Y-103846735D01*
G37*
%TD.AperFunction*%
%TA.AperFunction,Conductor*%
G36*
X140271248Y-103934100D02*
G01*
X139896129Y-104309220D01*
X139834806Y-104342705D01*
X139765114Y-104337721D01*
X139720767Y-104309220D01*
X139644893Y-104233346D01*
X139644885Y-104233340D01*
X139509688Y-104143004D01*
X139509684Y-104143002D01*
X139370367Y-104085296D01*
X139315963Y-104041455D01*
X139293898Y-103975161D01*
X139311177Y-103907462D01*
X139362314Y-103859851D01*
X139417819Y-103846735D01*
X139651507Y-103846735D01*
X139651507Y-103846734D01*
X139917694Y-103580546D01*
X140271248Y-103934100D01*
G37*
%TD.AperFunction*%
%TA.AperFunction,Conductor*%
G36*
X130427358Y-94427779D02*
G01*
X130476763Y-94477184D01*
X130489545Y-94512400D01*
X130490795Y-94518683D01*
X130490796Y-94518686D01*
X130554171Y-94671632D01*
X130554173Y-94671635D01*
X130589589Y-94724626D01*
X130646168Y-94809280D01*
X130646168Y-94809281D01*
X130763248Y-94926337D01*
X130838874Y-94976860D01*
X130883684Y-95030469D01*
X130892397Y-95099793D01*
X130891613Y-95104142D01*
X130858497Y-95270744D01*
X130858510Y-95352938D01*
X130858510Y-95393092D01*
X130858498Y-95393292D01*
X130858502Y-95422118D01*
X130858454Y-95422281D01*
X130858472Y-95541657D01*
X130852234Y-95562913D01*
X130850654Y-95585009D01*
X130842588Y-95595783D01*
X130838798Y-95608700D01*
X130822056Y-95623210D01*
X130808783Y-95640942D01*
X130796172Y-95645645D01*
X130786000Y-95654463D01*
X130764071Y-95657619D01*
X130743319Y-95665360D01*
X130730167Y-95662499D01*
X130716843Y-95664417D01*
X130696690Y-95655217D01*
X130675046Y-95650509D01*
X130657337Y-95637251D01*
X130653283Y-95635401D01*
X130646792Y-95629358D01*
X130626134Y-95608700D01*
X130593716Y-95576282D01*
X130593713Y-95576280D01*
X129911819Y-94894386D01*
X129878334Y-94833063D01*
X129875500Y-94806705D01*
X129875500Y-94694000D01*
X129895185Y-94626961D01*
X129947989Y-94581206D01*
X129994568Y-94571072D01*
X129994536Y-94570459D01*
X129994525Y-94570356D01*
X129994530Y-94570355D01*
X129994521Y-94570177D01*
X129997844Y-94569999D01*
X130057372Y-94563598D01*
X130057379Y-94563596D01*
X130192086Y-94513354D01*
X130192089Y-94513352D01*
X130293620Y-94437346D01*
X130359084Y-94412928D01*
X130427358Y-94427779D01*
G37*
%TD.AperFunction*%
%TA.AperFunction,Conductor*%
G36*
X134442539Y-84020185D02*
G01*
X134488294Y-84072989D01*
X134499500Y-84124500D01*
X134499500Y-89200902D01*
X134479815Y-89267941D01*
X134427011Y-89313696D01*
X134357853Y-89323640D01*
X134294297Y-89294615D01*
X134287819Y-89288583D01*
X133237590Y-88238355D01*
X133237588Y-88238352D01*
X133118717Y-88119481D01*
X133118716Y-88119480D01*
X133031904Y-88069360D01*
X133031904Y-88069359D01*
X133031900Y-88069358D01*
X132981785Y-88040423D01*
X132829057Y-87999499D01*
X132670943Y-87999499D01*
X132663347Y-87999499D01*
X132663331Y-87999500D01*
X127636670Y-87999500D01*
X127636654Y-87999499D01*
X127629058Y-87999499D01*
X127470943Y-87999499D01*
X127394579Y-88019961D01*
X127318214Y-88040423D01*
X127318209Y-88040426D01*
X127181290Y-88119475D01*
X127181282Y-88119481D01*
X125769479Y-89531284D01*
X125754289Y-89557594D01*
X125747869Y-89568716D01*
X125690423Y-89668215D01*
X125649499Y-89820943D01*
X125649499Y-89820945D01*
X125649499Y-89989046D01*
X125649500Y-89989059D01*
X125649500Y-90643805D01*
X125643261Y-90665050D01*
X125641682Y-90687139D01*
X125633609Y-90697922D01*
X125629815Y-90710844D01*
X125613081Y-90725343D01*
X125599810Y-90743072D01*
X125587189Y-90747779D01*
X125577011Y-90756599D01*
X125555093Y-90759750D01*
X125534346Y-90767489D01*
X125521185Y-90764626D01*
X125507853Y-90766543D01*
X125487709Y-90757343D01*
X125466073Y-90752637D01*
X125448347Y-90739368D01*
X125444297Y-90737518D01*
X125437819Y-90731486D01*
X125428688Y-90722355D01*
X125428686Y-90722352D01*
X125309815Y-90603481D01*
X125309814Y-90603480D01*
X125223002Y-90553360D01*
X125172883Y-90524423D01*
X125115808Y-90509129D01*
X125107929Y-90505802D01*
X125092175Y-90492928D01*
X125068485Y-90479250D01*
X124102590Y-89513355D01*
X124102588Y-89513352D01*
X123983717Y-89394481D01*
X123983709Y-89394475D01*
X123890087Y-89340423D01*
X123890085Y-89340422D01*
X123846790Y-89315425D01*
X123846789Y-89315424D01*
X123834263Y-89312067D01*
X123694057Y-89274499D01*
X123535943Y-89274499D01*
X123528347Y-89274499D01*
X123528331Y-89274500D01*
X122143472Y-89274500D01*
X122143456Y-89274499D01*
X122135860Y-89274499D01*
X121977745Y-89274499D01*
X121902673Y-89294615D01*
X121825016Y-89315423D01*
X121825011Y-89315426D01*
X121688092Y-89394475D01*
X121688084Y-89394481D01*
X120894481Y-90188084D01*
X120894479Y-90188087D01*
X120861922Y-90244479D01*
X120861921Y-90244481D01*
X120815423Y-90325016D01*
X120815423Y-90325017D01*
X120774499Y-90477745D01*
X120774499Y-90477747D01*
X120774499Y-90645848D01*
X120774500Y-90645861D01*
X120774500Y-92149902D01*
X120754815Y-92216941D01*
X120738181Y-92237583D01*
X119777889Y-93197875D01*
X119716566Y-93231360D01*
X119646874Y-93226376D01*
X119590941Y-93184504D01*
X119566524Y-93119040D01*
X119570432Y-93078107D01*
X119600500Y-92965892D01*
X119600500Y-92834107D01*
X119600500Y-92534108D01*
X119600500Y-91884108D01*
X119600500Y-85471353D01*
X121660000Y-85471353D01*
X121660000Y-85610000D01*
X122310000Y-85610000D01*
X122310000Y-86110000D01*
X121660000Y-86110000D01*
X121660000Y-86248646D01*
X121694584Y-86422512D01*
X121694586Y-86422520D01*
X121762428Y-86586307D01*
X121762433Y-86586316D01*
X121860923Y-86733716D01*
X121860926Y-86733720D01*
X121986279Y-86859073D01*
X121986283Y-86859076D01*
X122133683Y-86957566D01*
X122133693Y-86957571D01*
X122297476Y-87025412D01*
X122297483Y-87025415D01*
X122310000Y-87027904D01*
X122310000Y-86209728D01*
X122348060Y-86301614D01*
X122418386Y-86371940D01*
X122510272Y-86410000D01*
X122609728Y-86410000D01*
X122701614Y-86371940D01*
X122771940Y-86301614D01*
X122810000Y-86209728D01*
X122810000Y-87027903D01*
X122822516Y-87025415D01*
X122822523Y-87025412D01*
X122986306Y-86957571D01*
X122986316Y-86957566D01*
X123133716Y-86859076D01*
X123133720Y-86859073D01*
X123259073Y-86733720D01*
X123259076Y-86733716D01*
X123357566Y-86586316D01*
X123357571Y-86586307D01*
X123425413Y-86422520D01*
X123425415Y-86422512D01*
X123459999Y-86248646D01*
X123460000Y-86248643D01*
X123460000Y-86110000D01*
X122810000Y-86110000D01*
X122810000Y-85610000D01*
X123460000Y-85610000D01*
X123460000Y-85471357D01*
X123459999Y-85471353D01*
X130640000Y-85471353D01*
X130640000Y-85610000D01*
X131290000Y-85610000D01*
X131290000Y-86110000D01*
X130640000Y-86110000D01*
X130640000Y-86248646D01*
X130674584Y-86422512D01*
X130674586Y-86422520D01*
X130742428Y-86586307D01*
X130742433Y-86586316D01*
X130840923Y-86733716D01*
X130840926Y-86733720D01*
X130966279Y-86859073D01*
X130966283Y-86859076D01*
X131113683Y-86957566D01*
X131113693Y-86957571D01*
X131277476Y-87025412D01*
X131277483Y-87025415D01*
X131290000Y-87027904D01*
X131290000Y-86209728D01*
X131328060Y-86301614D01*
X131398386Y-86371940D01*
X131490272Y-86410000D01*
X131589728Y-86410000D01*
X131681614Y-86371940D01*
X131751940Y-86301614D01*
X131790000Y-86209728D01*
X131790000Y-87027904D01*
X131802516Y-87025415D01*
X131802523Y-87025412D01*
X131966306Y-86957571D01*
X131966316Y-86957566D01*
X132113716Y-86859076D01*
X132113720Y-86859073D01*
X132239073Y-86733720D01*
X132239076Y-86733716D01*
X132337566Y-86586316D01*
X132337571Y-86586307D01*
X132405413Y-86422520D01*
X132405415Y-86422512D01*
X132439999Y-86248646D01*
X132440000Y-86248643D01*
X132440000Y-86110000D01*
X131790000Y-86110000D01*
X131790000Y-85610000D01*
X132440000Y-85610000D01*
X132440000Y-85471357D01*
X132439999Y-85471353D01*
X132405415Y-85297487D01*
X132405413Y-85297479D01*
X132337571Y-85133692D01*
X132337566Y-85133683D01*
X132239076Y-84986283D01*
X132239073Y-84986279D01*
X132113720Y-84860926D01*
X132113716Y-84860923D01*
X131966316Y-84762433D01*
X131966307Y-84762428D01*
X131802519Y-84694585D01*
X131790000Y-84692094D01*
X131790000Y-85510272D01*
X131751940Y-85418386D01*
X131681614Y-85348060D01*
X131589728Y-85310000D01*
X131490272Y-85310000D01*
X131398386Y-85348060D01*
X131328060Y-85418386D01*
X131290000Y-85510272D01*
X131290000Y-84692095D01*
X131289999Y-84692094D01*
X131277480Y-84694585D01*
X131113692Y-84762428D01*
X131113683Y-84762433D01*
X130966283Y-84860923D01*
X130966279Y-84860926D01*
X130840926Y-84986279D01*
X130840923Y-84986283D01*
X130742433Y-85133683D01*
X130742428Y-85133692D01*
X130674586Y-85297479D01*
X130674584Y-85297487D01*
X130640000Y-85471353D01*
X123459999Y-85471353D01*
X123425415Y-85297487D01*
X123425413Y-85297479D01*
X123357571Y-85133692D01*
X123357566Y-85133683D01*
X123259076Y-84986283D01*
X123259073Y-84986279D01*
X123133720Y-84860926D01*
X123133716Y-84860923D01*
X122986316Y-84762433D01*
X122986307Y-84762428D01*
X122822519Y-84694585D01*
X122810000Y-84692094D01*
X122810000Y-85510272D01*
X122771940Y-85418386D01*
X122701614Y-85348060D01*
X122609728Y-85310000D01*
X122510272Y-85310000D01*
X122418386Y-85348060D01*
X122348060Y-85418386D01*
X122310000Y-85510272D01*
X122310000Y-84692095D01*
X122309999Y-84692094D01*
X122297480Y-84694585D01*
X122133692Y-84762428D01*
X122133683Y-84762433D01*
X121986283Y-84860923D01*
X121986279Y-84860926D01*
X121860926Y-84986279D01*
X121860923Y-84986283D01*
X121762433Y-85133683D01*
X121762428Y-85133692D01*
X121694586Y-85297479D01*
X121694584Y-85297487D01*
X121660000Y-85471353D01*
X119600500Y-85471353D01*
X119600500Y-84124500D01*
X119620185Y-84057461D01*
X119672989Y-84011706D01*
X119724500Y-84000500D01*
X134375500Y-84000500D01*
X134442539Y-84020185D01*
G37*
%TD.AperFunction*%
%TA.AperFunction,Conductor*%
G36*
X130930000Y-92060000D02*
G01*
X130553553Y-92060000D01*
X130388309Y-92225244D01*
X130326986Y-92258729D01*
X130257294Y-92253745D01*
X130201361Y-92211873D01*
X130176944Y-92146409D01*
X130186067Y-92090110D01*
X130198539Y-92060000D01*
X130243776Y-91950789D01*
X130275500Y-91791305D01*
X130275500Y-91684000D01*
X130295185Y-91616961D01*
X130347989Y-91571206D01*
X130399500Y-91560000D01*
X130930000Y-91560000D01*
X130930000Y-92060000D01*
G37*
%TD.AperFunction*%
%TA.AperFunction,Conductor*%
G36*
X123767539Y-91579685D02*
G01*
X123813294Y-91632489D01*
X123824500Y-91684000D01*
X123824500Y-91791305D01*
X123824500Y-91791307D01*
X123824499Y-91791307D01*
X123856222Y-91950783D01*
X123856225Y-91950793D01*
X123913932Y-92090111D01*
X123921401Y-92159580D01*
X123890126Y-92222059D01*
X123830036Y-92257711D01*
X123760211Y-92255217D01*
X123711690Y-92225244D01*
X123546446Y-92060000D01*
X123170000Y-92060000D01*
X123170000Y-91560000D01*
X123700500Y-91560000D01*
X123767539Y-91579685D01*
G37*
%TD.AperFunction*%
%TD*%
M02*
